<svg width="322" height="157" viewBox="0 0 322 157" fill="none" xmlns="http://www.w3.org/2000/svg">
<path d="M5.04 140.25H10.14C11.94 140.25 13.48 140.87 14.76 142.11C16.02 143.33 16.65 144.83 16.65 146.61C16.65 148.41 16.02 149.93 14.76 151.17C13.54 152.39 12 153 10.14 153H2.25V132H14.85V134.64H5.04V140.25ZM5.04 150.39H10.14C11.18 150.39 12.06 150.03 12.78 149.31C13.52 148.59 13.89 147.69 13.89 146.61C13.89 145.55 13.52 144.66 12.78 143.94C12.06 143.22 11.18 142.86 10.14 142.86H5.04V150.39ZM19.7988 132H35.0388V153H32.2488V134.64H22.5888V153H19.7988V132ZM56.3449 153H53.3749L51.6649 148.29H42.2149L40.5049 153H37.5349L45.3649 132H48.5149L56.3449 153ZM46.9249 135.33L43.1749 145.68H50.7049L46.9249 135.33ZM73.1023 153.39C70.8423 153.39 68.9623 152.64 67.4623 151.14C65.9623 149.62 65.2123 147.74 65.2123 145.5C65.2123 143.26 65.9623 141.39 67.4623 139.89C68.9623 138.37 70.8423 137.61 73.1023 137.61C74.5823 137.61 75.9123 137.97 77.0923 138.69C78.2723 139.39 79.1523 140.34 79.7323 141.54L77.5423 142.8C77.1623 142 76.5723 141.36 75.7723 140.88C74.9923 140.4 74.1023 140.16 73.1023 140.16C71.6023 140.16 70.3423 140.67 69.3223 141.69C68.3223 142.73 67.8223 144 67.8223 145.5C67.8223 146.98 68.3223 148.24 69.3223 149.28C70.3423 150.3 71.6023 150.81 73.1023 150.81C74.1023 150.81 75.0023 150.58 75.8023 150.12C76.6023 149.64 77.2123 149 77.6323 148.2L79.8523 149.49C79.1923 150.69 78.2623 151.64 77.0623 152.34C75.8623 153.04 74.5423 153.39 73.1023 153.39ZM95.2385 145.26L102.649 153H99.4085L92.5685 145.89V153H89.9585V138H92.5685V144.63L99.0485 138H102.409L95.2385 145.26ZM116.359 151.11C114.839 152.63 112.969 153.39 110.749 153.39C108.529 153.39 106.659 152.63 105.139 151.11C103.619 149.59 102.859 147.72 102.859 145.5C102.859 143.28 103.619 141.41 105.139 139.89C106.659 138.37 108.529 137.61 110.749 137.61C112.969 137.61 114.839 138.37 116.359 139.89C117.899 141.43 118.669 143.3 118.669 145.5C118.669 147.7 117.899 149.57 116.359 151.11ZM110.749 150.84C112.249 150.84 113.509 150.33 114.529 149.31C115.549 148.29 116.059 147.02 116.059 145.5C116.059 143.98 115.549 142.71 114.529 141.69C113.509 140.67 112.249 140.16 110.749 140.16C109.269 140.16 108.019 140.67 106.999 141.69C105.979 142.71 105.469 143.98 105.469 145.5C105.469 147.02 105.979 148.29 106.999 149.31C108.019 150.33 109.269 150.84 110.749 150.84ZM122.598 138H133.728V153H131.118V140.52H125.208V146.64C125.208 149.04 124.728 150.75 123.768 151.77C122.808 152.77 121.398 153.18 119.538 153V150.54C120.578 150.68 121.348 150.45 121.848 149.85C122.348 149.23 122.598 148.14 122.598 146.58V138ZM152.083 146.7H139.513C139.773 148.02 140.383 149.06 141.343 149.82C142.303 150.56 143.503 150.93 144.943 150.93C146.923 150.93 148.363 150.2 149.263 148.74L151.483 150C150.003 152.26 147.803 153.39 144.883 153.39C142.523 153.39 140.583 152.65 139.063 151.17C137.583 149.65 136.843 147.76 136.843 145.5C136.843 143.22 137.573 141.34 139.033 139.86C140.493 138.36 142.383 137.61 144.703 137.61C146.903 137.61 148.693 138.39 150.073 139.95C151.473 141.47 152.173 143.33 152.173 145.53C152.173 145.91 152.143 146.3 152.083 146.7ZM144.703 140.07C143.323 140.07 142.163 140.46 141.223 141.24C140.303 142.02 139.733 143.08 139.513 144.42H149.533C149.313 143.04 148.763 141.97 147.883 141.21C147.003 140.45 145.943 140.07 144.703 140.07ZM162.194 153.39C159.934 153.39 158.054 152.64 156.554 151.14C155.054 149.62 154.304 147.74 154.304 145.5C154.304 143.26 155.054 141.39 156.554 139.89C158.054 138.37 159.934 137.61 162.194 137.61C163.674 137.61 165.004 137.97 166.184 138.69C167.364 139.39 168.244 140.34 168.824 141.54L166.634 142.8C166.254 142 165.664 141.36 164.864 140.88C164.084 140.4 163.194 140.16 162.194 140.16C160.694 140.16 159.434 140.67 158.414 141.69C157.414 142.73 156.914 144 156.914 145.5C156.914 146.98 157.414 148.24 158.414 149.28C159.434 150.3 160.694 150.81 162.194 150.81C163.194 150.81 164.094 150.58 164.894 150.12C165.694 149.64 166.304 149 166.724 148.2L168.944 149.49C168.284 150.69 167.354 151.64 166.154 152.34C164.954 153.04 163.634 153.39 162.194 153.39ZM181.93 144.24V138H184.54V153H181.93V146.73H174.16V153H171.55V138H174.16V144.24H181.93ZM201.173 151.11C199.653 152.63 197.783 153.39 195.563 153.39C193.343 153.39 191.473 152.63 189.953 151.11C188.433 149.59 187.673 147.72 187.673 145.5C187.673 143.28 188.433 141.41 189.953 139.89C191.473 138.37 193.343 137.61 195.563 137.61C197.783 137.61 199.653 138.37 201.173 139.89C202.713 141.43 203.483 143.3 203.483 145.5C203.483 147.7 202.713 149.57 201.173 151.11ZM195.563 150.84C197.063 150.84 198.323 150.33 199.343 149.31C200.363 148.29 200.873 147.02 200.873 145.5C200.873 143.98 200.363 142.71 199.343 141.69C198.323 140.67 197.063 140.16 195.563 140.16C194.083 140.16 192.833 140.67 191.813 141.69C190.793 142.71 190.283 143.98 190.283 145.5C190.283 147.02 190.793 148.29 191.813 149.31C192.833 150.33 194.083 150.84 195.563 150.84ZM217.12 135.75H209.02V133.47H217.12V135.75ZM209.14 148.53L217.45 138H219.55V153H216.97V142.47L208.66 153H206.56V138H209.14V148.53ZM237.833 153.39C235.613 153.39 233.783 152.66 232.343 151.2C230.903 149.72 230.183 147.84 230.183 145.56C230.183 142.98 230.553 141.01 231.293 139.65C232.053 138.27 233.593 137.02 235.913 135.9C236.033 135.84 236.173 135.77 236.333 135.69C236.513 135.61 236.723 135.52 236.963 135.42C237.223 135.3 237.443 135.2 237.623 135.12L239.243 134.4C240.843 133.6 241.693 132.64 241.793 131.52L243.893 132.72C243.753 133.42 243.523 133.98 243.203 134.4C243.183 134.44 243.123 134.53 243.023 134.67C242.923 134.79 242.853 134.88 242.813 134.94C242.773 134.98 242.703 135.05 242.603 135.15C242.523 135.23 242.433 135.31 242.333 135.39C242.253 135.47 242.143 135.55 242.003 135.63C241.263 136.09 240.733 136.39 240.413 136.53C240.293 136.59 240.163 136.65 240.023 136.71C239.903 136.77 239.803 136.82 239.723 136.86C239.643 136.9 239.583 136.93 239.543 136.95L238.553 137.37L237.593 137.76C236.253 138.34 235.263 138.93 234.623 139.53C233.983 140.13 233.523 140.89 233.243 141.81C233.863 141.05 234.643 140.47 235.583 140.07C236.543 139.67 237.523 139.47 238.523 139.47C240.423 139.47 242.013 140.11 243.293 141.39C244.613 142.69 245.273 144.34 245.273 146.34C245.273 148.38 244.573 150.07 243.173 151.41C241.753 152.73 239.973 153.39 237.833 153.39ZM242.663 146.34C242.663 145 242.223 143.91 241.343 143.07C240.483 142.21 239.343 141.78 237.923 141.78C236.663 141.78 235.503 142.19 234.443 143.01C233.423 143.83 232.913 144.89 232.913 146.19C232.913 147.55 233.383 148.67 234.323 149.55C235.263 150.43 236.433 150.87 237.833 150.87C239.253 150.87 240.403 150.44 241.283 149.58C242.203 148.72 242.663 147.64 242.663 146.34ZM260.464 140.58V138H263.074V153H260.464V150.42C259.184 152.4 257.294 153.39 254.794 153.39C252.674 153.39 250.884 152.63 249.424 151.11C247.944 149.57 247.204 147.7 247.204 145.5C247.204 143.32 247.944 141.46 249.424 139.92C250.904 138.38 252.694 137.61 254.794 137.61C257.294 137.61 259.184 138.6 260.464 140.58ZM255.124 150.87C256.644 150.87 257.914 150.36 258.934 149.34C259.954 148.28 260.464 147 260.464 145.5C260.464 143.98 259.954 142.71 258.934 141.69C257.914 140.65 256.644 140.13 255.124 140.13C253.624 140.13 252.364 140.65 251.344 141.69C250.324 142.71 249.814 143.98 249.814 145.5C249.814 147 250.324 148.28 251.344 149.34C252.364 150.36 253.624 150.87 255.124 150.87ZM275.129 145.32C276.789 146.02 277.619 147.21 277.619 148.89C277.619 150.19 277.109 151.27 276.089 152.13C275.069 152.97 273.659 153.39 271.859 153.39C268.859 153.39 266.849 152.19 265.829 149.79L268.019 148.5C268.579 150.14 269.869 150.96 271.889 150.96C272.869 150.96 273.639 150.75 274.199 150.33C274.759 149.91 275.039 149.35 275.039 148.65C275.039 148.05 274.809 147.56 274.349 147.18C273.909 146.8 273.309 146.61 272.549 146.61H270.359V144.24H271.979C272.739 144.24 273.329 144.06 273.749 143.7C274.169 143.32 274.379 142.81 274.379 142.17C274.379 141.51 274.129 140.99 273.629 140.61C273.129 140.21 272.459 140.01 271.619 140.01C269.939 140.01 268.799 140.72 268.199 142.14L266.069 140.91C267.129 138.71 268.979 137.61 271.619 137.61C273.219 137.61 274.499 138.03 275.459 138.87C276.439 139.69 276.929 140.72 276.929 141.96C276.929 143.48 276.329 144.6 275.129 145.32ZM293.107 151.11C291.587 152.63 289.717 153.39 287.497 153.39C285.277 153.39 283.407 152.63 281.887 151.11C280.367 149.59 279.607 147.72 279.607 145.5C279.607 143.28 280.367 141.41 281.887 139.89C283.407 138.37 285.277 137.61 287.497 137.61C289.717 137.61 291.587 138.37 293.107 139.89C294.647 141.43 295.417 143.3 295.417 145.5C295.417 147.7 294.647 149.57 293.107 151.11ZM287.497 150.84C288.997 150.84 290.257 150.33 291.277 149.31C292.297 148.29 292.807 147.02 292.807 145.5C292.807 143.98 292.297 142.71 291.277 141.69C290.257 140.67 288.997 140.16 287.497 140.16C286.017 140.16 284.767 140.67 283.747 141.69C282.727 142.71 282.217 143.98 282.217 145.5C282.217 147.02 282.727 148.29 283.747 149.31C284.767 150.33 286.017 150.84 287.497 150.84ZM309.054 135.75H300.954V133.47H309.054V135.75ZM301.074 148.53L309.384 138H311.484V153H308.904V142.47L300.594 153H298.494V138H301.074V148.53Z" fill="white"/>
<path d="M125.127 0.281662C124.383 0.62368 123.517 1.52902 123.236 2.27341C123.095 2.65567 123.015 6.03561 123.015 12.0511C123.015 24.8667 122.27 23.8206 131.444 23.901C137.802 23.9614 137.822 23.9614 138.506 23.4987C139.954 22.4927 139.995 22.3519 140.115 17.8453L140.216 13.7813L143.596 13.721L146.956 13.6807V22.875V32.0893L145.306 33.7592L143.636 35.4089L143.576 62.3881L143.536 89.3472L141.866 89.2868L140.216 89.2265L140.115 85.1625C139.995 80.6559 139.954 80.5151 138.506 79.5092C137.822 79.0464 137.802 79.0464 131.444 79.1068C124.202 79.1671 124.362 79.147 123.477 80.8772C123.015 81.7625 123.015 81.8228 123.015 90.9567C123.015 96.9722 123.095 100.352 123.236 100.734C123.336 101.036 123.678 101.559 123.98 101.881C125.006 102.968 125.308 103.008 131.625 103.008C137.238 103.008 137.44 102.988 138.305 102.545C138.908 102.263 139.371 101.821 139.653 101.298C140.075 100.533 140.115 100.252 140.115 96.6101V92.7473H141.826H143.536V96.9722C143.536 101.479 143.676 102.344 144.501 102.787C144.783 102.947 149.813 103.008 160.838 103.008H176.772L177.355 102.424L177.939 101.841V97.2941V92.7473H179.629H181.319L181.399 96.7509L181.459 100.755L182.083 101.539C183.25 102.988 183.351 103.008 189.909 103.008C195.583 103.008 195.784 102.988 196.649 102.545C197.132 102.304 197.715 101.841 197.937 101.539C198.339 100.976 198.359 100.694 198.419 91.1579L198.48 81.3601L198.017 80.676C197.756 80.2938 197.232 79.7707 196.87 79.5293C196.206 79.0665 196.106 79.0665 190.07 79.0665C183.129 79.0665 182.948 79.1068 182.003 80.5352C181.459 81.34 181.459 81.4003 181.399 85.3436L181.339 89.3271H179.629H177.939V62.368V35.3888L176.229 33.6184L174.518 31.8479V22.7543V13.6807H177.918H181.339L181.399 17.6642C181.459 21.6075 181.459 21.6679 182.003 22.4726C182.948 23.901 183.129 23.9413 190.07 23.9413C196.106 23.9413 196.206 23.9413 196.87 23.4785C197.232 23.2371 197.756 22.714 198.017 22.3318L198.48 21.6477L198.419 11.8499C198.359 2.31365 198.339 2.03199 197.937 1.46867C197.715 1.16689 197.132 0.704155 196.649 0.442612C195.784 0.0201187 195.583 0 189.909 0C183.351 0 183.25 0.0201187 182.083 1.46867L181.459 2.2533L181.399 6.25692L181.319 10.2605H177.918H174.518V5.71371V1.16689L173.935 0.583443L173.352 0H160.838C152.267 0 148.203 0.0603561 147.921 0.221306C147.097 0.663918 146.956 1.52902 146.956 6.03561V10.2605H143.536H140.115V6.37763C140.115 2.75626 140.075 2.4746 139.653 1.71009C139.371 1.187 138.908 0.744392 138.305 0.442612C137.44 0.0201187 137.238 0 131.565 0C127.139 0.0201187 125.59 0.0804749 125.127 0.281662ZM136.695 5.11015V6.80013L135.488 6.8806C134.583 6.94096 134.16 7.08179 133.838 7.40369C133.235 8.00725 133.255 9.09366 133.879 9.75758C134.281 10.1801 134.522 10.2605 135.528 10.2605H136.695V11.9706V13.6807H135.911C134.1 13.6807 133.014 14.6665 133.456 15.934C133.778 16.8394 134.241 17.0808 135.548 17.1009H136.695V18.811V20.5211H131.565H126.435V18.811V17.1009H127.642C128.668 17.1009 128.95 17.0204 129.352 16.5979C129.996 15.9743 129.996 15.089 129.392 14.3648C128.99 13.902 128.708 13.8014 127.682 13.721L126.435 13.6405V11.9505V10.2605H127.622C128.628 10.2605 128.869 10.1801 129.332 9.73746C129.996 9.07354 130.016 8.24867 129.392 7.5244C128.99 7.06167 128.708 6.96107 127.682 6.8806L126.435 6.80013V5.11015V3.42018H131.565H136.695V5.11015ZM171.098 6.84036V10.2605H168.483H165.867V8.24867C165.867 6.35751 165.827 6.17645 165.364 5.73383C164.882 5.23087 164.861 5.23087 160.797 5.23087C157.9 5.25098 156.613 5.31134 156.391 5.49241C155.788 5.95514 155.607 6.61906 155.607 8.42974V10.2605H153.092H150.577V6.84036V3.42018H160.838H171.098V6.84036ZM195.04 5.13027V6.84036H194.134C192.947 6.84036 192.062 7.30309 191.881 8.00725C191.519 9.41556 192.283 10.2605 193.953 10.2605H195.04V11.9706V13.6807H194.235C193.008 13.6807 192.122 14.1233 191.861 14.8677C191.599 15.592 191.7 15.9944 192.283 16.6382C192.625 17.0204 192.907 17.1009 193.873 17.1009H195.04V18.811V20.5211H189.909H184.779V18.811V17.1009H185.986C187.012 17.1009 187.294 17.0204 187.696 16.5979C188.38 15.934 188.38 14.9281 187.696 14.2843C187.314 13.9221 186.891 13.7813 185.986 13.721L184.779 13.6405V11.9505V10.2605H185.986C187.012 10.2605 187.294 10.1801 187.696 9.75758C188.038 9.43568 188.199 9.05342 188.199 8.61081C188.179 7.42381 187.394 6.84036 185.805 6.84036H184.779V5.13027V3.42018H189.909H195.04V5.13027ZM162.447 15.4914V22.3318H160.737H159.027V15.4914V8.65105H160.737H162.447V15.4914ZM155.647 19.2335L155.707 24.7863L156.271 25.2691C156.713 25.6514 157.055 25.752 157.941 25.752H159.027V55.1052V84.4584L158.423 84.5992C157.76 84.74 156.251 85.8063 155.486 86.6714C155.225 86.9732 154.822 87.6975 154.561 88.2809L154.118 89.3271L150.597 89.2868L147.056 89.2265L146.996 63.0923L146.956 36.9581L148.626 35.2279C149.793 34.0006 150.356 33.2764 150.436 32.8136C150.517 32.4314 150.577 27.9851 150.577 22.9152V13.6807H153.092H155.587L155.647 19.2335ZM171.098 23.4584V33.2562L172.808 34.9864L174.518 36.7368V63.0319V89.3271H171.018H167.497L167.014 88.2407C166.31 86.7318 165.224 85.6051 163.735 84.8809L162.447 84.2371V55.0046V25.752H163.453C164.56 25.752 165.545 25.3496 165.747 24.8466C165.807 24.6655 165.867 22.1306 165.867 19.2335C165.867 16.3163 165.928 13.8819 166.008 13.8216C166.069 13.7411 167.256 13.6807 168.624 13.6807H171.098V23.4584ZM136.695 84.1968V85.9069H135.548C134.241 85.927 133.778 86.1684 133.456 87.0738C133.014 88.3413 134.1 89.3271 135.911 89.3271H136.695V91.0372V92.7473H135.528C134.522 92.7473 134.281 92.8277 133.879 93.2502C133.255 93.9142 133.235 95.0006 133.838 95.6041C134.16 95.926 134.583 96.0669 135.488 96.1272L136.695 96.2077V97.8977V99.5876H131.565H126.435V97.8977V96.2077L127.682 96.1272C128.708 96.0467 128.99 95.9461 129.392 95.4834C130.016 94.7591 129.996 93.9343 129.332 93.2704C128.869 92.8277 128.628 92.7473 127.622 92.7473H126.435V91.0573V89.3673L127.682 89.2868C128.708 89.2064 128.99 89.1058 129.392 88.6431C129.996 87.9188 129.996 87.0336 129.352 86.4099C128.95 85.9874 128.668 85.9069 127.642 85.9069H126.435V84.1968V82.4867H131.565H136.695V84.1968ZM195.04 84.1968V85.9069H193.873C192.907 85.9069 192.625 85.9874 192.283 86.3495C191.7 87.0134 191.599 87.4158 191.861 88.1401C192.122 88.8845 193.008 89.3271 194.235 89.3271H195.04V91.0372V92.7473H193.953C192.283 92.7473 191.519 93.5923 191.881 95.0006C192.062 95.7047 192.947 96.1674 194.134 96.1674H195.04V97.8775V99.5876H189.909H184.779V97.8775V96.1674H185.805C187.394 96.1674 188.179 95.584 188.199 94.397C188.199 93.9544 188.038 93.5721 187.696 93.2502C187.294 92.8277 187.012 92.7473 185.986 92.7473H184.779V91.0573V89.3673L185.986 89.2868C186.891 89.2265 187.314 89.0857 187.696 88.7235C188.38 88.0797 188.38 87.0738 187.696 86.4099C187.294 85.9874 187.012 85.9069 185.986 85.9069H184.779V84.1968V82.4867H189.909H195.04V84.1968ZM162.145 87.8987C164.761 89.1058 164.902 92.5461 162.387 93.9745C161.763 94.3165 161.381 94.3769 160.516 94.3165C158.705 94.1556 157.619 93.0692 157.458 91.2786C157.236 88.6229 159.751 86.7921 162.145 87.8987ZM154.681 93.9544C155.345 95.3426 156.613 96.6101 157.981 97.2337C158.745 97.5959 159.309 97.6764 160.838 97.6764C162.829 97.6764 163.574 97.4349 165.103 96.3083C165.807 95.7852 167.014 94.055 167.195 93.2905L167.316 92.7473H170.917H174.518V96.1674V99.5876L160.797 99.5474L147.056 99.487L146.996 96.1071L146.956 92.7473H150.537H154.118L154.681 93.9544Z" fill="#5CC3FD"/>
</svg>
