<svg width="231" height="151" viewBox="0 0 231 151" fill="none" xmlns="http://www.w3.org/2000/svg">
<path d="M15.24 133.91V125H18V146H15.24V136.55H5.04V146H2.25V125H5.04V133.91H15.24ZM34.6441 133.58V131H37.2541V146H34.6441V143.42C33.3641 145.4 31.4741 146.39 28.9741 146.39C26.8541 146.39 25.0641 145.63 23.6041 144.11C22.1241 142.57 21.3841 140.7 21.3841 138.5C21.3841 136.32 22.1241 134.46 23.6041 132.92C25.0841 131.38 26.8741 130.61 28.9741 130.61C31.4741 130.61 33.3641 131.6 34.6441 133.58ZM29.3041 143.87C30.8241 143.87 32.0941 143.36 33.1141 142.34C34.1341 141.28 34.6441 140 34.6441 138.5C34.6441 136.98 34.1341 135.71 33.1141 134.69C32.0941 133.65 30.8241 133.13 29.3041 133.13C27.8041 133.13 26.5441 133.65 25.5241 134.69C24.5041 135.71 23.9941 136.98 23.9941 138.5C23.9941 140 24.5041 141.28 25.5241 142.34C26.5441 143.36 27.8041 143.87 29.3041 143.87ZM54.1085 131V143.51H56.1785V150.02H53.5985V146H42.3485V150.02H39.7685V143.51H41.5985C42.5585 142.19 43.0385 140.34 43.0385 137.96V131H54.1085ZM44.5685 143.51H51.5285V133.43H45.6185V137.96C45.6185 140.16 45.2685 142.01 44.5685 143.51ZM68.9817 138.29C70.5217 138.93 71.2917 140.09 71.2917 141.77C71.2917 143.05 70.8717 144.08 70.0317 144.86C69.1917 145.62 68.0117 146 66.4917 146H58.9917V131H65.8917C67.3717 131 68.5217 131.37 69.3417 132.11C70.1817 132.85 70.6017 133.84 70.6017 135.08C70.6017 136.52 70.0617 137.59 68.9817 138.29ZM65.7717 133.34H61.5417V137.27H65.7717C67.2917 137.27 68.0517 136.6 68.0517 135.26C68.0517 133.98 67.2917 133.34 65.7717 133.34ZM61.5417 143.63H66.3417C67.1017 143.63 67.6817 143.45 68.0817 143.09C68.5017 142.73 68.7117 142.22 68.7117 141.56C68.7117 140.94 68.5017 140.46 68.0817 140.12C67.6817 139.76 67.1017 139.58 66.3417 139.58H61.5417V143.63ZM86.7689 144.11C85.2489 145.63 83.3789 146.39 81.1589 146.39C78.9389 146.39 77.0689 145.63 75.5489 144.11C74.0289 142.59 73.2689 140.72 73.2689 138.5C73.2689 136.28 74.0289 134.41 75.5489 132.89C77.0689 131.37 78.9389 130.61 81.1589 130.61C83.3789 130.61 85.2489 131.37 86.7689 132.89C88.3089 134.43 89.0789 136.3 89.0789 138.5C89.0789 140.7 88.3089 142.57 86.7689 144.11ZM81.1589 143.84C82.6589 143.84 83.9189 143.33 84.9389 142.31C85.9589 141.29 86.4689 140.02 86.4689 138.5C86.4689 136.98 85.9589 135.71 84.9389 134.69C83.9189 133.67 82.6589 133.16 81.1589 133.16C79.6789 133.16 78.4289 133.67 77.4089 134.69C76.3889 135.71 75.8789 136.98 75.8789 138.5C75.8789 140.02 76.3889 141.29 77.4089 142.31C78.4289 143.33 79.6789 143.84 81.1589 143.84ZM104.47 131V143.51H106.54V150.02H103.96V146H92.7098V150.02H90.1298V143.51H91.9598C92.9198 142.19 93.3998 140.34 93.3998 137.96V131H104.47ZM94.9298 143.51H101.89V133.43H95.9798V137.96C95.9798 140.16 95.6298 142.01 94.9298 143.51ZM119.733 137.24V131H122.343V146H119.733V139.73H111.963V146H109.353V131H111.963V137.24H119.733ZM128.926 136.4H132.646C134.146 136.4 135.386 136.85 136.366 137.75C137.366 138.63 137.866 139.78 137.866 141.2C137.866 142.62 137.366 143.78 136.366 144.68C135.366 145.56 134.126 146 132.646 146H126.316V131H128.926V136.4ZM139.816 146V131H142.426V146H139.816ZM128.926 143.57H132.646C133.406 143.57 134.036 143.35 134.536 142.91C135.036 142.47 135.286 141.9 135.286 141.2C135.286 140.5 135.026 139.93 134.506 139.49C134.006 139.03 133.386 138.8 132.646 138.8H128.926V143.57ZM160.814 139.7H148.244C148.504 141.02 149.114 142.06 150.074 142.82C151.034 143.56 152.234 143.93 153.674 143.93C155.654 143.93 157.094 143.2 157.994 141.74L160.214 143C158.734 145.26 156.534 146.39 153.614 146.39C151.254 146.39 149.314 145.65 147.794 144.17C146.314 142.65 145.574 140.76 145.574 138.5C145.574 136.22 146.304 134.34 147.764 132.86C149.224 131.36 151.114 130.61 153.434 130.61C155.634 130.61 157.424 131.39 158.804 132.95C160.204 134.47 160.904 136.33 160.904 138.53C160.904 138.91 160.874 139.3 160.814 139.7ZM153.434 133.07C152.054 133.07 150.894 133.46 149.954 134.24C149.034 135.02 148.464 136.08 148.244 137.42H158.264C158.044 136.04 157.494 134.97 156.614 134.21C155.734 133.45 154.674 133.07 153.434 133.07ZM174.464 133.25H179.564C181.364 133.25 182.904 133.87 184.184 135.11C185.444 136.33 186.074 137.83 186.074 139.61C186.074 141.41 185.444 142.93 184.184 144.17C182.964 145.39 181.424 146 179.564 146H171.674V125H184.274V127.64H174.464V133.25ZM174.464 143.39H179.564C180.604 143.39 181.484 143.03 182.204 142.31C182.944 141.59 183.314 140.69 183.314 139.61C183.314 138.55 182.944 137.66 182.204 136.94C181.484 136.22 180.604 135.86 179.564 135.86H174.464V143.39ZM189.223 125H204.463V146H201.673V127.64H192.013V146H189.223V125ZM225.769 146H222.799L221.089 141.29H211.639L209.929 146H206.959L214.789 125H217.939L225.769 146ZM216.349 128.33L212.599 138.68H220.129L216.349 128.33Z" fill="white"/>
<path d="M71.2919 0.851875C70.5056 1.83482 70.44 2.35905 70.9643 3.37476C71.1609 3.76794 77.9759 10.7468 86.0688 18.8724L100.813 33.6493L99.7317 33.8459C99.1091 33.9442 97.4709 34.1408 96.0292 34.2718L93.4736 34.5012L83.9063 24.9667C77.7138 18.7742 74.0441 15.3666 73.4871 15.2356C72.7663 15.039 72.4059 15.2028 71.5868 15.9892C71.0626 16.5462 70.6039 17.3325 70.6039 17.7257C70.6039 18.2827 72.8974 20.7728 78.8605 26.736C87.9364 35.8445 87.5104 35.1565 83.8735 35.4841C81.1213 35.7463 80.0073 37.876 81.6455 39.7108C82.006 40.104 82.6613 40.3005 83.7097 40.3005H85.2824L83.5459 47.2139C82.5957 51.0146 81.7438 54.16 81.6783 54.2583C81.58 54.3238 78.0742 54.6842 73.8476 55.0446C65.296 55.7655 63.8216 56.1259 61.6591 57.9935L60.2175 59.2713L59.4966 57.502C58.4809 55.0774 56.5478 52.9805 54.2871 51.8665L52.4195 50.9491H45.3751C37.1511 50.9491 36.1354 51.1784 33.3832 53.7996C30.631 56.388 30.1723 57.7969 30.0412 64.0877C29.9757 67.3969 30.074 69.887 30.3033 70.7389C30.7293 72.3444 32.7934 74.769 34.2351 75.3587C35.218 75.7519 35.218 75.7847 35.218 78.4714V81.1908L33.2194 81.3219C31.6139 81.453 31.0569 81.6168 30.5982 82.2066C29.7791 83.1895 29.8118 84.238 30.631 85.2864C31.188 86.0073 31.6139 86.1711 33.1866 86.2366L35.0542 86.3349L35.1525 88.825L35.2508 91.3479L33.2194 91.479C31.6139 91.61 31.0569 91.7738 30.5982 92.3636C29.7791 93.3465 29.8118 94.395 30.6637 95.4762L31.319 96.3281H37.872C44.9819 96.3281 45.9648 96.1315 47.7669 94.4278C49.2741 93.0189 49.9949 91.2496 50.1915 88.5957L50.3881 86.1711H57.8584C64.9356 86.1711 65.3943 86.1383 66.0168 85.5158C66.9997 84.5328 66.9014 82.7963 65.8202 81.9444C65.0011 81.2891 64.5424 81.2564 57.6291 81.2564H50.2898V76.8331C50.2898 72.9014 50.3553 72.3444 50.9123 71.7874C51.5348 71.1649 52.5833 71.1321 98.847 71.001C127.516 70.9027 147.011 70.7062 148.42 70.5096C150.124 70.2802 150.845 70.0181 151.27 69.4611C152.057 68.4782 152.024 67.3969 151.107 66.3485L150.353 65.4638L143.931 65.8242C137.444 66.1846 62.085 66.3485 62.085 66.0208C62.085 65.9225 62.4455 65.1362 62.9042 64.2515C63.8543 62.3512 65.296 61.0733 66.9342 60.6474C67.5895 60.4836 80.892 59.3368 96.4879 58.1245C123.093 56.0276 124.862 55.831 125.616 55.1757C127.385 53.6685 126.205 51.1129 123.715 51.1129H122.536L118.506 44.3634C116.278 40.6609 114.509 37.5811 114.574 37.4828C114.672 37.4172 115.688 37.2534 116.835 37.1551C119.423 36.893 120.668 36.3032 120.93 35.1565C121.193 34.2063 120.603 32.8957 119.685 32.306C119.292 32.0766 117.49 32.1421 113.296 32.5353L107.497 33.0923L90.9179 16.5462C75.0926 0.753586 74.3063 0 73.1595 0C72.2421 0 71.7834 0.196587 71.2919 0.851875ZM112.969 44.6582C115.131 48.2296 116.737 51.2767 116.605 51.4405C116.311 51.7026 105.072 52.5873 104.876 52.3907C104.646 52.0958 101.698 38.9244 101.829 38.7606C102.091 38.5312 106.285 38.0725 107.759 38.1381L109.07 38.1708L112.969 44.6582ZM96.8156 39.5142C96.8156 39.6125 97.4709 42.5285 98.29 46.0016C99.1091 49.5074 99.7644 52.489 99.7644 52.6528C99.7644 52.9149 87.3466 54.1272 87.0517 53.8979C87.019 53.8651 87.7398 50.6542 88.7227 46.8207L90.4592 39.8091L91.9337 39.6125C93.9323 39.3504 96.8156 39.2848 96.8156 39.5142ZM52.1574 56.3225C53.0092 56.7156 53.8611 57.4692 54.4181 58.3211C55.2045 59.5006 55.3683 60.1232 55.4666 62.5478C55.6304 65.8897 55.7615 65.7259 52.1574 66.1846C49.4379 66.5123 47.6686 67.5935 46.4235 69.6249L45.5389 71.0666L41.0174 71.0993C36.6597 71.0993 36.4631 71.0666 35.7095 70.2802C35.0214 69.6249 34.8904 69.1662 34.8904 67.659V65.857H39.1498C43.2781 65.857 43.4747 65.8242 44.2283 65.0379C45.2768 64.0222 45.2768 62.7771 44.2283 61.7614C43.4747 60.975 43.2781 60.9423 39.117 60.9423H34.8248L35.0542 60.0249C35.4146 58.616 36.8235 57.0105 38.2979 56.3225C39.4447 55.7982 40.4604 55.6999 45.2112 55.6999C49.9949 55.6999 50.9778 55.7982 52.1574 56.3225ZM45.3095 83.0912C45.2112 90.0701 45.2112 90.1684 44.4249 90.7909C43.9007 91.2168 43.1471 91.4134 41.902 91.4134H40.1327V83.7137V76.014H42.7867H45.4078L45.3095 83.0912Z" fill="#5CC3FD"/>
<path d="M164.64 47.6734C148.323 49.0167 134.66 50.2618 134.234 50.4584C132.694 51.1464 132.563 53.6366 134.005 54.5867C134.693 55.0454 136.036 54.9799 147.34 54.0953C166.605 52.5226 175.517 51.8017 180.399 51.4086C182.857 51.212 185.019 51.0809 185.216 51.1464C185.511 51.2447 182.169 57.6011 181.382 58.4202C181.055 58.7478 171.258 61.4345 164.967 62.909C159.233 64.2523 158.414 64.711 158.414 66.4148C158.414 67.2994 159.758 68.8066 160.544 68.8066C161.429 68.8066 168.604 67.2011 173.093 65.9888C175.485 65.3335 177.516 64.8748 177.614 64.9404C177.942 65.3008 174.338 70.281 172.175 72.4107C168.014 76.6046 162.706 79.4551 156.94 80.6346C154.155 81.2244 151.73 81.2572 114.772 81.2572C86.3319 81.2572 75.323 81.3555 74.7333 81.6176C73.0623 82.3712 72.9312 84.9923 74.5039 85.8115C74.9626 86.0736 87.4132 86.1719 114.608 86.1719C147.831 86.1719 154.515 86.1063 156.809 85.6804C166.179 84.0422 174.993 78.3084 180.006 70.6087C180.825 69.3308 183.807 64.3178 186.592 59.4359L191.638 50.5239L193.964 50.3273C195.864 50.1635 196.388 49.9997 197.011 49.2789C198.387 47.7062 197.568 45.642 195.438 45.3799C194.816 45.3143 180.956 46.3628 164.64 47.6734Z" fill="#5CC3FD"/>
</svg>
