<svg width="325" height="191" viewBox="0 0 325 191" fill="none" xmlns="http://www.w3.org/2000/svg">
<path d="M18.75 152H21.9V173H19.14V156.59L12.27 168.02H11.91L5.04 156.62V173H2.25V152H5.4L12.09 163.1L18.75 152ZM32.2706 169.76L36.5906 158H39.3806L33.2606 173.93C32.6206 175.63 31.7206 176.92 30.5606 177.8C29.4006 178.7 28.0806 179.1 26.6006 179V176.57C28.4206 176.71 29.7706 175.71 30.6506 173.57L30.8906 173.03L24.3806 158H27.1406L32.2706 169.76ZM42.0026 158H53.1326V173H50.5226V160.52H44.6126V166.64C44.6126 169.04 44.1326 170.75 43.1726 171.77C42.2126 172.77 40.8026 173.18 38.9426 173V170.54C39.9826 170.68 40.7526 170.45 41.2526 169.85C41.7526 169.23 42.0026 168.14 42.0026 166.58V158ZM59.6974 163.4H63.4174C64.9174 163.4 66.1574 163.85 67.1374 164.75C68.1374 165.63 68.6374 166.78 68.6374 168.2C68.6374 169.62 68.1374 170.78 67.1374 171.68C66.1374 172.56 64.8974 173 63.4174 173H57.0874V158H59.6974V163.4ZM59.6974 170.57H63.4174C64.1774 170.57 64.8074 170.35 65.3074 169.91C65.8074 169.47 66.0574 168.9 66.0574 168.2C66.0574 167.5 65.7974 166.93 65.2774 166.49C64.7774 166.03 64.1574 165.8 63.4174 165.8H59.6974V170.57ZM68.0344 158H80.8744V160.52H75.7744V173H73.1644V160.52H68.0344V158ZM85.7416 168.53L94.0516 158H96.1516V173H93.5716V162.47L85.2616 173H83.1616V158H85.7416V168.53ZM108.405 157.61C110.505 157.61 112.295 158.38 113.775 159.92C115.255 161.46 115.995 163.32 115.995 165.5C115.995 167.7 115.255 169.57 113.775 171.11C112.315 172.63 110.525 173.39 108.405 173.39C105.925 173.39 104.035 172.4 102.735 170.42V179H100.125V158H102.735V160.58C104.035 158.6 105.925 157.61 108.405 157.61ZM108.075 170.87C109.575 170.87 110.835 170.36 111.855 169.34C112.875 168.28 113.385 167 113.385 165.5C113.385 163.98 112.875 162.71 111.855 161.69C110.835 160.65 109.575 160.13 108.075 160.13C106.555 160.13 105.285 160.65 104.265 161.69C103.245 162.71 102.735 163.98 102.735 165.5C102.735 167 103.245 168.28 104.265 169.34C105.285 170.36 106.555 170.87 108.075 170.87ZM131.769 171.11C130.249 172.63 128.379 173.39 126.159 173.39C123.939 173.39 122.069 172.63 120.549 171.11C119.029 169.59 118.269 167.72 118.269 165.5C118.269 163.28 119.029 161.41 120.549 159.89C122.069 158.37 123.939 157.61 126.159 157.61C128.379 157.61 130.249 158.37 131.769 159.89C133.309 161.43 134.079 163.3 134.079 165.5C134.079 167.7 133.309 169.57 131.769 171.11ZM126.159 170.84C127.659 170.84 128.919 170.33 129.939 169.31C130.959 168.29 131.469 167.02 131.469 165.5C131.469 163.98 130.959 162.71 129.939 161.69C128.919 160.67 127.659 160.16 126.159 160.16C124.679 160.16 123.429 160.67 122.409 161.69C121.389 162.71 120.879 163.98 120.879 165.5C120.879 167.02 121.389 168.29 122.409 169.31C123.429 170.33 124.679 170.84 126.159 170.84ZM134.89 158H147.73V160.52H142.63V173H140.02V160.52H134.89V158ZM162.091 171.11C160.571 172.63 158.701 173.39 156.481 173.39C154.261 173.39 152.391 172.63 150.871 171.11C149.351 169.59 148.591 167.72 148.591 165.5C148.591 163.28 149.351 161.41 150.871 159.89C152.391 158.37 154.261 157.61 156.481 157.61C158.701 157.61 160.571 158.37 162.091 159.89C163.631 161.43 164.401 163.3 164.401 165.5C164.401 167.7 163.631 169.57 162.091 171.11ZM156.481 170.84C157.981 170.84 159.241 170.33 160.261 169.31C161.281 168.29 161.791 167.02 161.791 165.5C161.791 163.98 161.281 162.71 160.261 161.69C159.241 160.67 157.981 160.16 156.481 160.16C155.001 160.16 153.751 160.67 152.731 161.69C151.711 162.71 151.201 163.98 151.201 165.5C151.201 167.02 151.711 168.29 152.731 169.31C153.751 170.33 155.001 170.84 156.481 170.84ZM175.758 157.61C177.858 157.61 179.648 158.38 181.128 159.92C182.608 161.46 183.348 163.32 183.348 165.5C183.348 167.7 182.608 169.57 181.128 171.11C179.668 172.63 177.878 173.39 175.758 173.39C173.278 173.39 171.388 172.4 170.088 170.42V179H167.478V158H170.088V160.58C171.388 158.6 173.278 157.61 175.758 157.61ZM175.428 170.87C176.928 170.87 178.188 170.36 179.208 169.34C180.228 168.28 180.738 167 180.738 165.5C180.738 163.98 180.228 162.71 179.208 161.69C178.188 160.65 176.928 160.13 175.428 160.13C173.908 160.13 172.638 160.65 171.618 161.69C170.598 162.71 170.088 163.98 170.088 165.5C170.088 167 170.598 168.28 171.618 169.34C172.638 170.36 173.908 170.87 175.428 170.87ZM196.842 164.24V158H199.452V173H196.842V166.73H189.072V173H186.462V158H189.072V164.24H196.842ZM206.035 163.4H209.755C211.255 163.4 212.495 163.85 213.475 164.75C214.475 165.63 214.975 166.78 214.975 168.2C214.975 169.62 214.475 170.78 213.475 171.68C212.475 172.56 211.235 173 209.755 173H203.425V158H206.035V163.4ZM216.925 173V158H219.535V173H216.925ZM206.035 170.57H209.755C210.515 170.57 211.145 170.35 211.645 169.91C212.145 169.47 212.395 168.9 212.395 168.2C212.395 167.5 212.135 166.93 211.615 166.49C211.115 166.03 210.495 165.8 209.755 165.8H206.035V170.57ZM237.923 166.7H225.353C225.613 168.02 226.223 169.06 227.183 169.82C228.143 170.56 229.343 170.93 230.783 170.93C232.763 170.93 234.203 170.2 235.103 168.74L237.323 170C235.843 172.26 233.643 173.39 230.723 173.39C228.363 173.39 226.423 172.65 224.903 171.17C223.423 169.65 222.683 167.76 222.683 165.5C222.683 163.22 223.413 161.34 224.873 159.86C226.333 158.36 228.223 157.61 230.543 157.61C232.743 157.61 234.533 158.39 235.913 159.95C237.313 161.47 238.013 163.33 238.013 165.53C238.013 165.91 237.983 166.3 237.923 166.7ZM230.543 160.07C229.163 160.07 228.003 160.46 227.063 161.24C226.143 162.02 225.573 163.08 225.353 164.42H235.373C235.153 163.04 234.603 161.97 233.723 161.21C232.843 160.45 231.783 160.07 230.543 160.07ZM251.573 160.25H256.673C258.473 160.25 260.013 160.87 261.293 162.11C262.553 163.33 263.183 164.83 263.183 166.61C263.183 168.41 262.553 169.93 261.293 171.17C260.073 172.39 258.533 173 256.673 173H248.783V152H261.383V154.64H251.573V160.25ZM251.573 170.39H256.673C257.713 170.39 258.593 170.03 259.313 169.31C260.053 168.59 260.423 167.69 260.423 166.61C260.423 165.55 260.053 164.66 259.313 163.94C258.593 163.22 257.713 162.86 256.673 162.86H251.573V170.39ZM266.332 152H281.572V173H278.782V154.64H269.122V173H266.332V152ZM284.248 173V170.48C285.668 170.68 286.708 170.28 287.368 169.28C288.048 168.28 288.388 166.49 288.388 163.91V152H302.248V173H299.458V154.64H291.178V163.91C291.178 165.77 290.998 167.34 290.638 168.62C290.298 169.9 289.798 170.86 289.138 171.5C288.498 172.14 287.778 172.58 286.978 172.82C286.198 173.04 285.288 173.1 284.248 173ZM323.562 173H320.592L318.882 168.29H309.432L307.722 173H304.752L312.582 152H315.732L323.562 173ZM314.142 155.33L310.392 165.68H317.922L314.142 155.33Z" fill="white"/>
<path d="M107.069 0.312431C106.224 0.414818 104.407 0.875565 103.05 1.3363C90.2521 5.45737 83.0851 19.2796 87.1293 32.0523C89.7402 40.3712 96.2673 46.5144 104.765 48.6901C106.608 49.1765 107.76 49.2789 110.525 49.3045C114.287 49.3045 116.745 48.8693 119.688 47.6919L121.326 47.052L124.193 49.9188C128.724 54.4238 129.953 56.9835 129.953 61.7188C129.953 66.4542 128.724 69.0139 124.219 73.4933L121.378 76.3345L118.69 75.4387C113.878 73.8261 109.603 73.6725 104.637 74.9267C91.1992 78.3311 83.2642 92.614 87.4109 105.873C91.6344 119.286 106.045 126.402 119.304 121.615C125.729 119.286 131.488 113.527 133.818 107.102C135.891 101.342 135.789 94.8409 133.536 89.3889L132.947 88.0066L136.147 84.8838C140.575 80.5324 143.058 79.3294 147.717 79.355C152.247 79.355 155.012 80.7372 159.414 85.1398L162.307 88.0322L161.667 89.6704C160.387 92.8444 160.08 94.6106 160.08 98.5781C160.08 101.65 160.182 102.674 160.643 104.465C161.948 109.252 163.74 112.349 167.221 115.856C170.702 119.337 173.8 121.129 178.612 122.434C181.632 123.253 187.212 123.253 190.335 122.434C197.835 120.489 203.978 115.293 206.999 108.382C208.458 105.028 208.918 102.725 208.918 98.5781C208.944 93.4587 208.15 90.4895 205.514 85.9077C203.927 83.1177 199.959 79.1758 197.169 77.5632C192.639 74.9523 189.644 74.1588 184.499 74.1588C180.532 74.1588 178.765 74.466 175.591 75.7458L173.953 76.3857L171.061 73.4933C166.658 69.0907 165.276 66.3262 165.276 61.7956C165.25 57.137 166.453 54.6542 170.805 50.2259L173.928 47.052L175.566 47.6919C178.765 48.9717 180.532 49.2789 184.499 49.2789C187.494 49.2789 188.646 49.1765 190.489 48.7157C199.857 46.3608 206.896 39.0402 208.842 29.595C209.379 27.0354 209.456 23.3238 209.046 20.7642C208.662 18.2045 207.229 14.3394 205.847 11.9845C204.157 9.14329 200.215 5.2014 197.374 3.51202C195.019 2.1298 191.154 0.696388 188.595 0.312431C177.793 -1.42814 167.068 4.22873 162.358 14.1602C160.669 17.7438 160.08 20.4058 160.08 24.6037C160.054 28.3664 160.489 30.8237 161.667 33.7673L162.307 35.4055L159.44 38.2723C154.935 42.8029 152.375 44.0315 147.64 44.0315C142.904 44.0315 140.345 42.8029 135.84 38.2723L132.973 35.4055L133.613 33.7673C134.79 30.8237 135.225 28.3664 135.225 24.6037C135.2 20.5594 134.637 17.8462 133.05 14.4674C131.232 10.5511 128.929 7.65868 125.576 5.15021C120.2 1.08034 113.673 -0.609047 107.069 0.312431ZM116.284 5.12461C124.065 7.42831 129.569 13.6227 130.976 21.6345C131.488 24.4501 131.232 27.9824 130.311 30.9516L129.876 32.2827L126.011 28.4688C121.403 23.8614 120.277 23.2215 117.18 23.2215C114.876 23.2215 113.417 23.7846 111.702 25.3716C109.936 26.9842 109.117 28.8783 109.117 31.2588C109.142 34.3816 109.808 35.4823 114.39 40.0897L118.204 43.9548L116.873 44.3899C111.062 46.1817 104.714 45.3114 99.6973 42.0094C95.2691 39.1426 92.3255 34.9959 90.7641 29.467C90.2777 27.7009 90.3545 21.7624 90.9176 19.7403C92.9654 12.2149 98.9806 6.48123 106.685 4.76626C109.014 4.22873 113.903 4.4335 116.284 5.12461ZM189.362 4.97103C191.922 5.68774 193.663 6.43004 195.557 7.68428C204.951 13.8275 207.741 26.0627 201.905 35.5334C196.99 43.5196 187.366 47.1287 178.407 44.3643L177.076 43.9548L180.89 40.0897C185.472 35.4823 186.137 34.3816 186.163 31.2588C186.163 28.8783 185.344 26.9842 183.578 25.3716C181.863 23.7846 180.404 23.2215 178.1 23.2215C175.003 23.2215 173.876 23.8614 169.269 28.4688L165.404 32.2827L164.994 30.9516C161.692 20.2778 167.554 8.86172 178.1 5.45737C179.021 5.15021 180.352 4.79185 181.044 4.66387C182.758 4.33112 187.622 4.51029 189.362 4.97103ZM118.664 27.5473C119.279 27.8288 122.376 30.6957 127.802 36.0966C132.307 40.576 136.557 44.6203 137.222 45.0554C140.37 47.1799 143.621 48.1526 147.64 48.1526C151.659 48.1526 154.909 47.1799 158.058 45.0554C158.723 44.5947 163.023 40.5248 167.605 35.9686C174.644 28.9807 176.103 27.6753 177.025 27.3937C179.968 26.5234 182.835 29.3903 181.965 32.3339C181.683 33.2809 180.378 34.6888 173.39 41.7534C168.834 46.3352 164.738 50.6355 164.303 51.301C162.204 54.3982 161.181 57.8538 161.181 61.7188C161.181 65.5839 162.204 69.0395 164.303 72.1367C164.764 72.8022 168.834 77.1025 173.39 81.6843C180.378 88.7233 181.683 90.1824 181.965 91.0782C182.81 94.0219 179.943 96.8887 177.025 96.044C176.103 95.7624 174.644 94.457 167.605 87.4691C163.023 82.9129 158.723 78.843 158.058 78.3823C154.909 76.2578 151.659 75.2851 147.64 75.2851C143.621 75.2851 140.37 76.2578 137.222 78.3823C136.557 78.843 132.256 82.9129 127.674 87.4691C120.635 94.457 119.176 95.7624 118.28 96.044C115.286 96.9143 112.444 94.073 113.315 91.0782C113.596 90.1824 114.902 88.7233 121.89 81.6843C126.446 77.1025 130.516 72.8022 130.976 72.1367C133.075 69.0395 134.099 65.5839 134.099 61.7188C134.099 57.8538 133.075 54.3982 130.976 51.301C130.516 50.6355 126.446 46.3352 121.915 41.7534C113.238 32.9994 112.828 32.513 113.187 30.6701C113.443 29.3135 114.287 28.1872 115.465 27.6753C116.77 27.061 117.436 27.0354 118.664 27.5473ZM116.105 78.8686L118.229 79.4573L114.39 83.348C109.782 88.0066 109.142 89.0817 109.117 92.1789C109.117 94.5594 109.936 96.4535 111.702 98.0661C113.392 99.6275 114.876 100.216 117.18 100.216C120.251 100.242 121.378 99.5763 126.011 94.9689L129.876 91.155L130.311 92.486C131.386 95.9928 131.514 100.114 130.618 103.697C130.029 106.001 128.186 109.661 126.651 111.556C124.219 114.576 120.482 117.059 116.54 118.287C114.287 119.004 109.808 119.26 107.3 118.825C104.919 118.39 101.515 117.084 99.6973 115.881C95.5506 113.117 92.9142 109.713 91.276 104.926C90.5081 102.674 90.4569 102.341 90.4313 98.834C90.4313 94.6362 90.7385 93.0492 92.2487 89.8752C94.0148 86.1381 97.2144 82.7081 100.824 80.686C105.303 78.1775 111.037 77.4864 116.105 78.8686ZM189.362 78.6894C194.712 80.1485 198.782 83.0665 201.649 87.4947C203.927 90.9758 204.848 94.1242 204.848 98.5781C204.848 104.337 202.903 109.098 198.961 113.04C195.019 116.982 190.258 118.927 184.499 118.927C180.045 118.927 176.871 118.006 173.441 115.753C165.686 110.66 162.256 101.266 164.969 92.486L165.404 91.155L169.269 94.9689C173.876 99.5763 175.003 100.216 178.1 100.216C180.404 100.216 181.863 99.6531 183.578 98.0661C185.344 96.4535 186.163 94.5594 186.163 92.1789C186.137 89.0561 185.472 87.9554 180.89 83.3224L177.05 79.4573L178.535 79.0222C179.354 78.7918 180.532 78.4847 181.172 78.3567C182.784 78.0239 187.673 78.2287 189.362 78.6894Z" fill="#5CC3FD"/>
<path d="M109.604 8.75901C106.021 9.34773 102.795 11.0883 99.9029 13.9807C96.5753 17.3083 94.8348 21.0198 94.502 25.4736C94.3228 27.547 94.3484 27.6494 94.9884 28.2893C96.3706 29.6715 98.4951 28.7244 98.4951 26.7023C98.4951 23.2723 100.133 19.4328 102.719 16.8732C105.329 14.2367 109.195 12.5729 112.624 12.5729C114.621 12.5729 115.594 10.4484 114.237 9.11736C113.725 8.57983 113.392 8.47745 112.266 8.50304C111.524 8.52864 110.321 8.63103 109.604 8.75901Z" fill="#5CC3FD"/>
<path d="M110.421 16.9504C108.834 17.3344 106.505 18.691 105.379 19.9196C103.945 21.481 102.87 23.8871 102.666 25.9605C102.538 27.5218 102.563 27.6754 103.177 28.2897C104.483 29.5952 106.684 28.7249 106.684 26.8819C106.684 23.7591 109.679 20.7643 112.802 20.7643C114.619 20.7643 115.515 18.5886 114.235 17.3088C113.57 16.6177 112.341 16.5153 110.421 16.9504Z" fill="#5CC3FD"/>
<path d="M181.069 9.06743C180.225 9.91212 180.199 11.0896 180.993 11.9087C181.453 12.3694 181.965 12.523 183.527 12.651C187.008 12.9581 190.079 14.3659 192.537 16.8232C194.994 19.2805 196.402 22.3521 196.709 25.8333C196.837 27.3946 196.99 27.9066 197.451 28.3673C198.27 29.1608 199.448 29.1352 200.292 28.2905C200.932 27.6506 200.958 27.5482 200.779 25.4749C200.446 21.0211 198.705 17.3096 195.378 13.982C192.05 10.6544 188.339 8.91385 183.885 8.5811C181.812 8.40192 181.709 8.42752 181.069 9.06743Z" fill="#5CC3FD"/>
<path d="M181.068 17.2576C179.763 18.563 180.633 20.7643 182.476 20.7643C185.599 20.7643 188.594 23.7591 188.594 26.8819C188.594 28.7249 190.795 29.5952 192.1 28.2897C192.715 27.6754 192.74 27.5218 192.612 25.9349C192.382 23.6823 191.076 20.9691 189.464 19.5101C187.877 18.0255 185.496 16.9504 183.397 16.7456C181.836 16.6177 181.682 16.6433 181.068 17.2576Z" fill="#5CC3FD"/>
<path d="M145.592 55.9088C144.338 56.3184 142.188 58.5197 141.804 59.8251C141.087 62.2312 141.599 64.151 143.416 65.9427C146.002 68.5536 149.278 68.5536 151.863 65.9427C154.372 63.4599 154.449 60.2603 152.068 57.6238C150.404 55.7809 148.024 55.1409 145.592 55.9088ZM149.048 60.3115C150.328 61.5657 149.432 63.767 147.64 63.767C147.154 63.767 146.616 63.5366 146.232 63.1271C144.952 61.8729 145.848 59.6715 147.64 59.6715C148.126 59.6715 148.664 59.9019 149.048 60.3115Z" fill="#5CC3FD"/>
<path d="M94.9884 95.1484C94.3484 95.7883 94.3228 95.8907 94.502 97.964C94.8348 102.418 96.5753 106.129 99.9029 109.457C103.23 112.785 106.942 114.525 111.396 114.858C113.469 115.037 113.572 115.011 114.211 114.372C115.056 113.527 115.082 112.349 114.288 111.53C113.828 111.07 113.316 110.916 111.805 110.788C108.222 110.481 105.15 109.047 102.591 106.437C100.133 103.979 98.4951 100.089 98.4951 96.7354C98.4951 94.7133 96.3706 93.7662 94.9884 95.1484Z" fill="#5CC3FD"/>
<path d="M103.177 95.1483C102.563 95.7626 102.538 95.9162 102.666 97.4776C102.87 99.5765 103.945 101.957 105.43 103.544C106.889 105.157 109.602 106.462 111.855 106.692C113.442 106.82 113.595 106.795 114.21 106.18C115.515 104.875 114.645 102.674 112.802 102.674C109.679 102.674 106.684 99.6789 106.684 96.5561C106.684 94.7132 104.483 93.8429 103.177 95.1483Z" fill="#5CC3FD"/>
<path d="M189.234 95.1227C188.824 95.5066 188.594 96.0186 188.594 96.5561C188.594 98.1431 188.005 99.4485 186.674 100.754C185.368 102.085 184.063 102.674 182.476 102.674C180.633 102.674 179.763 104.875 181.068 106.18C181.682 106.795 181.836 106.82 183.423 106.692C185.676 106.462 188.389 105.157 189.848 103.544C191.332 101.957 192.407 99.5765 192.612 97.4776C192.74 95.9162 192.715 95.7626 192.1 95.1483C191.23 94.278 190.078 94.278 189.234 95.1227Z" fill="#5CC3FD"/>
<path d="M197.451 95.0716C196.99 95.5324 196.837 96.0443 196.709 97.5545C196.095 104.696 190.591 110.174 183.475 110.788C181.965 110.916 181.453 111.07 180.993 111.53C180.199 112.349 180.225 113.527 181.069 114.372C181.709 115.011 181.812 115.037 183.885 114.858C188.339 114.525 192.05 112.785 195.378 109.457C198.705 106.129 200.446 102.418 200.779 97.964C200.958 95.8907 200.932 95.7883 200.292 95.1484C199.448 94.3037 198.27 94.2781 197.451 95.0716Z" fill="#5CC3FD"/>
</svg>
