<svg width="148" height="29" viewBox="0 0 148 29" fill="none" xmlns="http://www.w3.org/2000/svg">
<path d="M12.1551 11.14C14.4351 12.12 15.5751 13.83 15.5751 16.27C15.5751 18.07 14.8951 19.54 13.5351 20.68C12.1951 21.82 10.4151 22.39 8.19508 22.39C6.23508 22.39 4.62508 21.96 3.36508 21.1C2.12508 20.24 1.24508 19.06 0.725078 17.56L3.09508 16.21C3.71508 18.57 5.41508 19.75 8.19508 19.75C9.63508 19.75 10.7551 19.43 11.5551 18.79C12.3751 18.15 12.7851 17.28 12.7851 16.18C12.7851 15.08 12.4051 14.21 11.6451 13.57C10.8851 12.91 9.84508 12.58 8.52508 12.58H6.06508V10.03H7.83508C9.09508 10.03 10.1051 9.72 10.8651 9.1C11.6451 8.46 12.0351 7.63 12.0351 6.61C12.0351 5.59 11.6751 4.77 10.9551 4.15C10.2351 3.53 9.25508 3.22 8.01508 3.22C5.69508 3.22 4.14508 4.25 3.36508 6.31L1.02508 4.96C2.28508 2.06 4.61508 0.609998 8.01508 0.609998C10.0351 0.609998 11.6651 1.17 12.9051 2.29C14.1651 3.39 14.7951 4.81 14.7951 6.55C14.7951 8.57 13.9151 10.1 12.1551 11.14ZM31.0387 9.58V7H33.6487V22H31.0387V19.42C29.7587 21.4 27.8687 22.39 25.3687 22.39C23.2487 22.39 21.4587 21.63 19.9987 20.11C18.5187 18.57 17.7787 16.7 17.7787 14.5C17.7787 12.32 18.5187 10.46 19.9987 8.92C21.4787 7.38 23.2687 6.61 25.3687 6.61C27.8687 6.61 29.7587 7.6 31.0387 9.58ZM25.6987 19.87C27.2187 19.87 28.4887 19.36 29.5087 18.34C30.5287 17.28 31.0387 16 31.0387 14.5C31.0387 12.98 30.5287 11.71 29.5087 10.69C28.4887 9.65 27.2187 9.13 25.6987 9.13C24.1987 9.13 22.9387 9.65 21.9187 10.69C20.8987 11.71 20.3887 12.98 20.3887 14.5C20.3887 16 20.8987 17.28 21.9187 18.34C22.9387 19.36 24.1987 19.87 25.6987 19.87ZM37.603 7H47.443V9.52H40.213V22H37.603V7ZM58.012 6.61C60.112 6.61 61.902 7.38 63.382 8.92C64.862 10.46 65.602 12.32 65.602 14.5C65.602 16.7 64.862 18.57 63.382 20.11C61.922 21.63 60.132 22.39 58.012 22.39C55.532 22.39 53.642 21.4 52.342 19.42V28H49.732V7H52.342V9.58C53.642 7.6 55.532 6.61 58.012 6.61ZM57.682 19.87C59.182 19.87 60.442 19.36 61.462 18.34C62.482 17.28 62.992 16 62.992 14.5C62.992 12.98 62.482 11.71 61.462 10.69C60.442 9.65 59.182 9.13 57.682 9.13C56.162 9.13 54.892 9.65 53.872 10.69C52.852 11.71 52.342 12.98 52.342 14.5C52.342 16 52.852 17.28 53.872 18.34C54.892 19.36 56.162 19.87 57.682 19.87ZM74.2804 18.76L78.6004 7H81.3904L75.2704 22.93C74.6304 24.63 73.7304 25.92 72.5704 26.8C71.4104 27.7 70.0904 28.1 68.6104 28V25.57C70.4304 25.71 71.7804 24.71 72.6604 22.57L72.9004 22.03L66.3904 7H69.1504L74.2804 18.76ZM91.3476 14.32C93.0076 15.02 93.8376 16.21 93.8376 17.89C93.8376 19.19 93.3276 20.27 92.3076 21.13C91.2876 21.97 89.8776 22.39 88.0776 22.39C85.0776 22.39 83.0676 21.19 82.0476 18.79L84.2376 17.5C84.7976 19.14 86.0876 19.96 88.1076 19.96C89.0876 19.96 89.8576 19.75 90.4176 19.33C90.9776 18.91 91.2576 18.35 91.2576 17.65C91.2576 17.05 91.0276 16.56 90.5676 16.18C90.1276 15.8 89.5276 15.61 88.7676 15.61H86.5776V13.24H88.1976C88.9576 13.24 89.5476 13.06 89.9676 12.7C90.3876 12.32 90.5976 11.81 90.5976 11.17C90.5976 10.51 90.3476 9.99 89.8476 9.61C89.3476 9.21 88.6776 9.01 87.8376 9.01C86.1576 9.01 85.0176 9.72 84.4176 11.14L82.2876 9.91C83.3476 7.71 85.1976 6.61 87.8376 6.61C89.4376 6.61 90.7176 7.03 91.6776 7.87C92.6576 8.69 93.1476 9.72 93.1476 10.96C93.1476 12.48 92.5476 13.6 91.3476 14.32ZM101.946 14.26L109.356 22H106.116L99.2755 14.89V22H96.6655V7H99.2755V13.63L105.756 7H109.116L101.946 14.26ZM122.826 9.58V7H125.436V22H122.826V19.42C121.546 21.4 119.656 22.39 117.156 22.39C115.036 22.39 113.246 21.63 111.786 20.11C110.306 18.57 109.566 16.7 109.566 14.5C109.566 12.32 110.306 10.46 111.786 8.92C113.266 7.38 115.056 6.61 117.156 6.61C119.656 6.61 121.546 7.6 122.826 9.58ZM117.486 19.87C119.006 19.87 120.276 19.36 121.296 18.34C122.316 17.28 122.826 16 122.826 14.5C122.826 12.98 122.316 11.71 121.296 10.69C120.276 9.65 119.006 9.13 117.486 9.13C115.986 9.13 114.726 9.65 113.706 10.69C112.686 11.71 112.176 12.98 112.176 14.5C112.176 16 112.686 17.28 113.706 18.34C114.726 19.36 115.986 19.87 117.486 19.87ZM131.04 22.33C130.5 22.33 130.04 22.14 129.66 21.76C129.28 21.38 129.09 20.92 129.09 20.38C129.09 19.84 129.28 19.38 129.66 19C130.04 18.62 130.5 18.43 131.04 18.43C131.6 18.43 132.06 18.62 132.42 19C132.8 19.38 132.99 19.84 132.99 20.38C132.99 20.92 132.8 21.38 132.42 21.76C132.06 22.14 131.6 22.33 131.04 22.33ZM138.335 22.33C137.795 22.33 137.335 22.14 136.955 21.76C136.575 21.38 136.385 20.92 136.385 20.38C136.385 19.84 136.575 19.38 136.955 19C137.335 18.62 137.795 18.43 138.335 18.43C138.895 18.43 139.355 18.62 139.715 19C140.095 19.38 140.285 19.84 140.285 20.38C140.285 20.92 140.095 21.38 139.715 21.76C139.355 22.14 138.895 22.33 138.335 22.33ZM145.63 22.33C145.09 22.33 144.63 22.14 144.25 21.76C143.87 21.38 143.68 20.92 143.68 20.38C143.68 19.84 143.87 19.38 144.25 19C144.63 18.62 145.09 18.43 145.63 18.43C146.19 18.43 146.65 18.62 147.01 19C147.39 19.38 147.58 19.84 147.58 20.38C147.58 20.92 147.39 21.38 147.01 21.76C146.65 22.14 146.19 22.33 145.63 22.33Z" fill="white"/>
</svg>
