<svg width="115" height="115" viewBox="0 0 115 115" fill="none" xmlns="http://www.w3.org/2000/svg">
<path d="M21.8529 14.9358C19.0004 16.3733 18.349 19.9221 20.5052 22.3928C22.1449 24.2796 87.4164 94.2005 88.0228 94.7171C88.3373 95.0091 89.1459 95.3909 89.7972 95.593C90.7855 95.885 91.1898 95.9075 92.0658 95.6829C94.8959 95.0091 96.513 91.8196 95.39 89.1468C95.1878 88.6751 88.2474 81.0384 77.7132 69.718C68.1673 59.4759 60.0814 50.8059 59.7669 50.4466L59.183 49.8176L60.8675 49.9749C70.6156 50.8284 78.7015 54.5344 85.9789 61.4075C88.4271 63.7434 89.2132 64.1253 91.1 63.968C93.975 63.721 95.9964 60.7786 95.2328 57.926C95.0306 57.1624 94.5365 56.4885 93.0091 54.9612C86.6078 48.3801 77.7806 43.4837 68.7289 41.4622C67.3138 41.1477 65.2474 40.7884 64.1244 40.6311C61.6986 40.3167 56.263 40.2493 52.9837 40.4964L50.6029 40.676L46.1556 35.9143C42.9662 32.5003 41.7982 31.1077 42.0228 30.9954C42.5619 30.7034 47.1664 29.6926 49.6371 29.3108C52.9388 28.7942 59.4974 28.637 63.0238 28.9514C74.8382 30.052 86.3158 34.7014 95.2328 42.0012C98.1976 44.4046 98.3773 44.5393 99.4779 44.8313C101.589 45.3704 103.79 44.4046 104.846 42.4505C105.61 40.9905 105.497 38.8343 104.577 37.6438C103.229 35.8469 97.3216 31.3997 92.6498 28.637C80.2289 21.2923 65.2923 18.0579 50.7601 19.5628C45.5492 20.1018 38.474 21.7415 34.7904 23.2239C34.5209 23.3362 33.4203 22.303 30.68 19.3382C27.6703 16.1038 26.7045 15.2278 25.8285 14.846C24.391 14.2171 23.2455 14.262 21.8529 14.9358Z" fill="#5CC3FD"/>
<path d="M18.8888 31.6924C15.9688 33.1523 10.8477 37.4199 10.0841 39.0371C9.38779 40.4297 9.54501 42.5186 10.421 43.7764C11.2296 44.9219 12.9366 45.8203 14.3517 45.8203C15.8116 45.7979 16.8897 45.2363 19.0684 43.3496C20.1241 42.4512 21.7862 41.1934 22.7745 40.542C25.6944 38.6553 26.3907 37.6221 26.2335 35.3535C26.0763 32.8154 24.4142 31.1758 21.8087 31.041C20.5059 30.9736 20.169 31.041 18.8888 31.6924Z" fill="#5CC3FD"/>
<path d="M34.0282 46.5391C31.0858 47.5947 22.5731 54.4229 21.5399 56.5117C19.9901 59.7461 22.1688 63.3398 25.7177 63.3398C27.3573 63.3398 27.9188 63.0254 30.5917 60.6221C32.7479 58.6904 34.6796 57.208 37.7343 55.209C39.4638 54.041 40.1825 52.8281 40.1825 51.0986C40.205 47.8418 37.0155 45.4834 34.0282 46.5391Z" fill="#5CC3FD"/>
<path d="M47.6172 62.5088C44.6299 63.5869 41.0586 66.0576 37.5547 69.4941C35.3086 71.6729 34.8145 72.5264 34.8145 74.2334C34.8145 76.9736 36.9258 79.0625 39.7109 79.0625C40.8789 79.0625 42.0244 78.4561 43.4619 77.0635C46.3818 74.2334 49.0547 72.2568 50.9863 71.5156C53.3223 70.6172 54.4453 69.1123 54.4678 66.8213C54.4902 63.2725 51.2109 61.2061 47.6172 62.5088Z" fill="#5CC3FD"/>
<path d="M55.0284 84.251C53.7032 84.835 52.8722 85.6661 52.1534 87.0362C50.5362 90.1807 52.3106 94.3135 55.7247 95.3243C57.2071 95.7735 57.7911 95.7735 59.2286 95.3467C61.6993 94.6055 63.4288 92.2471 63.4288 89.6192C63.4063 86.2276 60.9356 83.7794 57.4991 83.7794C56.5108 83.7794 55.7022 83.9366 55.0284 84.251Z" fill="#5CC3FD"/>
</svg>
