<svg width="103" height="103" viewBox="0 0 103 103" fill="none" xmlns="http://www.w3.org/2000/svg">
<path d="M33.5152 14.5846C24.0199 18.8294 16.0736 22.4706 15.8725 22.6516C15.5506 22.9333 15.4902 23.2954 15.4902 24.8444C15.4902 26.5141 15.5305 26.7354 15.9529 27.1176C16.5766 27.701 17.4014 27.6809 18.0049 27.0573C18.4072 26.6751 18.5078 26.3733 18.5078 25.5887V24.603L22.2898 22.9333C24.3619 22.0079 31.7852 18.6885 38.7859 15.5704L51.5201 9.89732L67.9961 17.2401L84.4922 24.603V38.7454C84.4922 53.6924 84.4318 55.1006 83.4863 59.4057C81.4344 68.8206 75.6004 78.1348 68.1369 83.9688C65.7229 85.8598 57.4949 91.4524 56.1672 92.1163C53.2301 93.5848 49.6492 93.5446 46.6719 92.0358C45.485 91.4323 37.0559 85.6587 34.8631 83.9688C31.5236 81.3737 28.1037 77.5917 25.6293 73.8297C22.3703 68.8206 20.3988 63.9522 19.1516 57.7561C18.6688 55.2616 18.6486 55.0403 18.5682 44.1569C18.5279 37.1963 18.4273 32.8913 18.2865 32.5694C18.0854 32.0463 17.3611 31.5836 16.7777 31.5836C16.2547 31.5836 15.4902 32.5292 15.4902 33.193V33.7965H13.4182C11.4064 33.7965 11.326 33.7764 11.1047 33.3137C10.3402 31.6239 8.3084 30.4571 6.41738 30.6381C5.06953 30.7588 4.28496 31.1411 3.33945 32.1067C1.89102 33.5954 1.64961 35.9893 2.77617 37.7999C3.9832 39.7713 6.65879 40.5961 8.71074 39.6305C9.67637 39.1879 10.7225 38.162 11.1047 37.2969C11.326 36.8342 11.4064 36.8141 13.4182 36.8141H15.4902V41.8434V46.8727H12.3922C9.39473 46.8727 9.27402 46.8526 9.15332 46.4503C8.93203 45.7462 7.6043 44.4184 6.73926 44.0362C5.77363 43.5936 3.88262 43.5333 2.95723 43.9155C1.32773 44.5995 0 46.5307 0 48.2004C0 51.0973 2.67559 53.451 5.51211 53.0286C6.73926 52.8274 8.10723 51.902 8.75098 50.8157L9.29414 49.8903H12.352H15.4299L15.5506 52.4452C15.6713 54.7788 16.134 58.5005 16.4156 59.3856C16.5162 59.7276 16.315 59.7477 13.9412 59.7477H11.3461L10.6621 58.7016C8.65039 55.684 4.28496 55.9858 2.55488 59.2448C1.95137 60.3713 1.97148 62.3629 2.55488 63.4895C4.08379 66.3864 7.90605 66.9094 10.1994 64.5758C10.5414 64.2137 10.9438 63.6706 11.0645 63.3487L11.3059 62.7653H14.2631H17.2203L17.9848 65.0184C20.7006 73.186 26.434 81.2128 33.4146 86.6645C35.3057 88.1331 43.7348 93.8665 45.1631 94.6712C48.8244 96.6829 54.1555 96.703 57.8168 94.6712C59.2451 93.9067 66.7287 88.8171 69.1025 87.0266C75.7814 81.9772 81.1125 74.9563 84.2508 67.0704C84.6934 65.9639 85.2164 64.5356 85.3975 63.912L85.7193 62.7653H88.6967H91.6941L91.9355 63.3487C92.5592 64.8575 94.3898 66.0243 96.14 66.0243C98.9363 66.0243 100.868 64.093 100.868 61.3571C100.868 59.446 99.9422 57.9171 98.2725 57.0721C96.1199 55.9858 93.1828 56.8911 92.1367 58.943L91.7344 59.7477H89.099C86.685 59.7477 86.4838 59.7276 86.5844 59.3856C86.866 58.5206 87.3287 54.7788 87.4494 52.4452L87.5701 49.8903H90.6279H93.6857L94.2893 50.876C95.1945 52.3044 96.4619 53.0085 98.1719 53.0085C99.0168 53.0085 99.741 52.8676 100.224 52.6262C101.894 51.8215 103 50.0311 103 48.2004C103 46.5307 101.672 44.5995 100.043 43.9155C99.1174 43.5333 97.2264 43.5936 96.2607 44.0362C95.3957 44.4184 94.068 45.7462 93.8467 46.4503C93.726 46.8526 93.6053 46.8727 90.6078 46.8727H87.5098V41.8434V36.8141H89.602H91.6941L91.9355 37.4176C92.2574 38.1821 93.5047 39.3288 94.4703 39.7311C96.2004 40.4553 98.7754 39.7915 99.8818 38.343C100.485 37.5383 100.988 36.1704 100.988 35.3254C100.988 33.696 99.8215 31.8251 98.3328 31.0606C97.2465 30.4973 95.5969 30.4571 94.3898 30.9801C93.3438 31.4227 92.2977 32.4085 91.8953 33.3137C91.674 33.7764 91.5936 33.7965 89.602 33.7965H87.5098L87.4695 28.3448L87.4092 22.8729L86.9062 22.5108C86.6246 22.2895 78.6783 18.6885 69.2434 14.484C57.676 9.33404 51.8621 6.83951 51.4396 6.85963C51.0574 6.85963 43.9359 9.93755 33.5152 14.5846ZM7.94629 34.0983C9.0125 35.1444 8.26816 37.0153 6.79961 37.0153C6.05527 36.9952 5.6127 36.7337 5.2707 36.0698C4.88848 35.3657 4.98906 34.8024 5.6127 34.1788C6.37715 33.4344 7.2623 33.3942 7.94629 34.0983ZM97.3873 34.1788C98.0109 34.8024 98.1115 35.3657 97.7293 36.0698C96.8844 37.6792 94.5508 37.1159 94.5508 35.3053C94.5508 33.7161 96.2406 33.0522 97.3873 34.1788ZM5.93457 47.1745C7.0209 48.2608 6.19609 50.0915 4.62695 50.0915C3.96309 50.0915 3.01758 49.0253 3.01758 48.2809C3.01758 46.8526 4.90859 46.1284 5.93457 47.1745ZM99.4795 47.1745C100.184 47.8585 100.143 48.7436 99.399 49.5081C98.7754 50.1317 98.2121 50.2323 97.508 49.8501C96.5022 49.327 96.2607 48.12 96.985 47.1946C97.5482 46.4704 98.7754 46.4503 99.4795 47.1745ZM7.50371 59.7879C8.16758 60.1299 8.4291 60.5725 8.44922 61.3772C8.46934 63.3688 5.49199 63.6102 5.10977 61.6588C4.84824 60.2506 6.27656 59.1241 7.50371 59.7879ZM96.8441 59.7477C98.6346 60.4116 98.0512 63.0671 96.1199 63.0067C94.41 62.9665 93.9271 60.6128 95.4561 59.7879C95.959 59.5063 96.2004 59.5063 96.8441 59.7477Z" fill="#5CC3FD"/>
<path d="M36.815 19.6943C28.909 23.235 22.2301 26.2727 21.9686 26.4537L21.5059 26.7957L21.5863 40.8979C21.6668 56.0059 21.6467 55.7443 22.7531 60.0494C24.966 68.6998 30.2568 76.7266 37.318 82.0979C39.209 83.5262 47.276 89.0182 48.2014 89.4809C50.1125 90.4465 52.8887 90.4465 54.7998 89.4809C55.7252 89.0182 63.8525 83.5061 65.6832 82.0979C73.0662 76.4449 78.3168 68.2975 80.4693 59.124C81.3143 55.4828 81.4752 53.5516 81.4752 45.9473C81.4752 39.2885 81.4551 38.6648 81.1332 38.3631C80.4693 37.7797 79.7652 37.7395 79.1416 38.2826L78.5582 38.7855L78.4375 46.7117C78.357 51.4393 78.2162 55.1408 78.0754 55.9254C76.5264 64.3746 72.8852 71.2547 66.9707 76.9479C64.6572 79.1809 63.8525 79.7844 58.1393 83.6871C53.1502 87.107 52.3455 87.4691 50.6355 87.107C49.5291 86.8857 49.509 86.8656 43.8561 82.983C38.7262 79.4826 37.5191 78.517 34.9844 75.9018C30.3977 71.1742 27.2594 65.5615 25.65 59.1844C24.624 55.1006 24.5436 53.9539 24.5436 40.7369V28.4654L38.0422 22.4705L51.5207 16.4756L64.9791 22.4705L78.4174 28.4654L78.4979 30.7387C78.5582 32.8711 78.5984 33.0521 79.041 33.4143C79.6445 33.9172 80.5699 33.8971 81.0729 33.3941C81.435 33.032 81.4752 32.7303 81.4752 29.9139C81.4752 27.2182 81.435 26.7756 81.1332 26.5141C80.6906 26.1318 51.8828 13.277 51.4805 13.277C51.3195 13.277 44.7211 16.1738 36.815 19.6943Z" fill="#5CC3FD"/>
<path d="M47.8789 24.5628C43.7951 25.6089 40.4355 28.3448 38.5646 32.0866C37.3777 34.4806 37.1766 35.3657 37.0357 39.2282L36.915 42.7487L35.366 42.8493C33.7164 42.9499 33.1129 43.2516 32.3082 44.338C31.9059 44.861 31.8857 45.1829 31.8254 51.1979C31.765 57.3337 31.7852 57.5349 32.1875 57.9372C32.7307 58.4804 33.817 58.4804 34.3199 57.9171C34.682 57.5147 34.7021 57.0722 34.7625 51.6807L34.8229 45.8669H51.5201H68.1973L68.157 56.4686L68.0967 67.0905H51.5H34.9033L34.8027 65.2397C34.682 63.1274 34.3199 62.5038 33.2135 62.5038C32.0064 62.5038 31.7852 62.9665 31.7852 65.4208C31.7852 67.7544 31.9461 68.3177 32.8312 69.1425C33.998 70.2489 33.4146 70.2087 51.5402 70.2087C67.3725 70.2087 68.3381 70.1886 69.1025 69.8265C69.9877 69.4241 70.9533 68.4384 71.1143 67.7343C71.1746 67.4929 71.1947 62.2423 71.1746 56.0864C71.1143 45.1427 71.1143 44.8811 70.6918 44.338C69.8871 43.2516 69.2836 42.9499 67.634 42.8493L66.085 42.7487L65.9643 39.2282C65.8637 36.4118 65.743 35.4462 65.401 34.4001C63.7514 29.3306 59.6877 25.5485 54.7791 24.4622C52.7875 24.0196 49.7699 24.0599 47.8789 24.5628ZM54.3768 27.4798C58.018 28.4253 61.0959 31.2417 62.3633 34.8628C62.7455 35.8888 62.826 36.6733 62.9064 39.4696L63.007 42.8493H61.277H59.5469V40.4352C59.5469 37.7395 59.3055 36.3313 58.6215 34.9634C55.7045 29.1696 47.2955 29.1696 44.3785 34.9634C43.6945 36.3313 43.4531 37.7395 43.4531 40.4352V42.8493H41.723H39.993L40.0936 39.4696C40.174 36.6733 40.2545 35.8888 40.6367 34.8628C41.884 31.3222 44.7809 28.5862 48.3818 27.5401C49.9309 27.0774 52.7674 27.0573 54.3768 27.4798ZM54.0146 34.2794C55.9459 35.4261 56.6098 37.0958 56.4891 40.6364L56.4287 42.7487H51.5H46.5713V40.0329C46.5713 37.5182 46.6115 37.2366 47.0742 36.3313C47.6375 35.2249 48.6635 34.2995 49.8102 33.877C50.9971 33.4345 52.8881 33.6155 54.0146 34.2794Z" fill="#5CC3FD"/>
<path d="M49.81 49.5889C48.0799 50.2125 46.8125 52.0633 46.8125 54.0146C46.8125 55.785 47.6172 57.1529 49.307 58.2191C49.81 58.541 49.8502 58.6617 49.9307 60.6533C50.0312 63.1076 50.2928 63.5703 51.4998 63.5703C52.7068 63.5703 52.9684 63.1277 53.0689 60.6332C53.1494 58.6014 53.1896 58.5209 53.6926 58.2393C55.1611 57.4748 56.1871 55.7447 56.1871 54.0146C56.1871 50.7154 52.9482 48.4623 49.81 49.5889ZM52.6264 52.7875C53.7932 53.7732 53.0287 55.7246 51.4998 55.7246C51.1779 55.7246 50.675 55.5033 50.3732 55.2418C49.2064 54.2561 49.9709 52.3047 51.4998 52.3047C51.8217 52.3047 52.3246 52.526 52.6264 52.7875Z" fill="#5CC3FD"/>
</svg>
