<svg width="89" height="89" viewBox="0 0 89 89" fill="none" xmlns="http://www.w3.org/2000/svg">
<g clip-path="url(#clip0_1_4384)">
<path d="M7.1273 0.157318C5.92788 0.522362 4.83277 1.46103 4.27652 2.57353C3.56382 3.96416 3.51167 3.66865 7.90952 21.2079L12.0293 37.6347L11.7337 39.1122C11.5599 39.9292 11.4382 40.9374 11.4382 41.372C11.4382 41.8065 12.4291 46.0827 13.6285 50.8804C14.8279 55.6954 15.8187 59.6761 15.8187 59.763C15.8187 59.8325 15.2277 59.989 14.4976 60.1106C13.7501 60.2149 12.8115 60.5104 12.3248 60.7712C11.5078 61.2231 5.18042 66.9942 3.02495 69.2714C2.43394 69.8798 1.68648 70.9228 1.33882 71.5833C0.226322 73.704 0.174173 74.1038 0.174173 81.0222C0.174173 89.644 -0.434225 89.0009 7.78785 89.0009C12.2552 89.0009 13.5068 88.9487 13.9587 88.7575C14.2716 88.6185 15.0712 88.0274 15.7318 87.4538L16.9486 86.3935H44.5003H72.0521L73.2689 87.4538C73.9468 88.0274 74.729 88.6185 75.0419 88.7575C75.4939 88.9487 76.7455 89.0009 81.2128 89.0009C87.4706 89.0009 87.6445 88.9661 88.4267 87.8015C88.8265 87.2104 88.8265 87.1757 88.8265 81.0222C88.8265 74.1038 88.7744 73.704 87.6619 71.5833C87.3142 70.9054 86.5146 69.845 85.8888 69.1845C83.5769 66.7509 77.5103 61.2405 76.6759 60.7886C76.1892 60.5104 75.2505 60.2149 74.5031 60.1106C73.773 59.989 73.182 59.8325 73.182 59.763C73.182 59.6761 74.1728 55.6954 75.3722 50.8978C76.5716 46.1001 77.5451 41.8065 77.5624 41.372C77.5624 40.9374 77.4234 39.9118 77.2669 39.1122L76.9714 37.6347L81.0912 21.2079C85.489 3.66865 85.4369 3.96416 84.7242 2.57353C83.1423 -0.590141 78.6749 -0.850883 76.9367 2.13896C76.2935 3.23408 72.6083 18.079 72.8343 18.67C73.1472 19.5044 74.2597 19.7304 74.8681 19.0698C75.1289 18.7917 75.7199 16.7231 77.0757 11.2997C78.1013 7.23212 79.0226 3.72079 79.1443 3.5122C79.8048 2.15634 82.1515 2.504 82.4818 3.99892C82.5513 4.31181 81.2128 9.92646 78.4837 20.8776C74.0511 38.5733 74.2771 37.3913 74.7986 40.103L75.0419 41.3546L72.8865 50.0112C71.7044 54.7741 70.6615 58.9634 70.5572 59.311L70.3833 59.9716H66.7677H63.1347L65.7074 49.7853L68.28 39.6163L69.4968 38.1214L70.7136 36.6265L72.2955 30.2991C73.1646 26.8399 73.8773 23.7632 73.8773 23.4851C73.8773 23.1374 73.7208 22.8593 73.4253 22.6159C72.8343 22.1466 72.4345 22.164 71.8957 22.6333C71.5132 22.981 71.2351 23.9196 69.8792 29.2735L68.28 35.514L67.1675 36.9046C66.5417 37.6521 65.9507 38.4864 65.8638 38.7298C65.7769 38.9731 64.5949 43.5622 63.2564 48.9161C61.9179 54.2874 60.7533 58.9634 60.649 59.311L60.4751 59.9716H48.8634C37.3734 59.9716 37.2343 59.9716 36.7824 60.3366C36.2087 60.7886 36.1566 61.7099 36.6781 62.2313C37.0257 62.579 37.2517 62.579 53.7132 62.579H70.4007V65.0995C70.4007 67.394 70.366 67.62 70.0705 67.7938C69.8792 67.8808 68.6103 67.9677 67.2023 67.9677C64.8904 67.9677 64.6296 68.0024 64.3167 68.3153C63.8822 68.7499 63.8648 69.6017 64.2994 70.0362C64.7861 70.5229 65.5683 70.6272 68.28 70.5403C70.8527 70.4708 71.3046 70.3317 72.1738 69.4104C72.9039 68.6456 73.0082 68.1241 73.0082 65.2386V62.5269L73.8773 62.6311C74.3466 62.6833 75.0072 62.8571 75.3201 63.0136C76.1544 63.4134 84.2722 71.0792 85.0023 72.1743C86.1669 73.9126 86.2191 74.2776 86.2191 80.6745V86.3935H81.1433L76.0501 86.3761L71.183 82.2216C66.1941 77.9628 65.1337 77.2153 63.3607 76.746C61.8136 76.3462 27.1871 76.3462 25.64 76.746C23.8669 77.2153 22.8066 77.9628 17.8177 82.2216L12.9505 86.3935H7.87476H2.78159V80.6745C2.78159 74.2776 2.83374 73.9126 3.99839 72.1743C4.72847 71.0966 12.8636 63.396 13.698 63.0136C13.9935 62.8571 14.6541 62.6833 15.1234 62.6311L15.9925 62.5269V65.2386C15.9925 68.1241 16.0968 68.6456 16.8269 69.4104C17.922 70.5751 16.2359 70.4882 38.764 70.5403C49.9933 70.5751 59.4496 70.5403 59.7625 70.4882C60.423 70.3665 61.014 69.7929 61.014 69.254C61.014 69.0454 60.8576 68.6804 60.649 68.4196L60.3013 67.9677H39.7896C25.9703 67.9677 19.1562 67.9155 18.9302 67.7938C18.6347 67.62 18.6 67.394 18.6 65.0995V62.579H25.5357C32.0195 62.579 32.4888 62.5616 32.8712 62.2661C33.4449 61.7968 33.3927 60.9103 32.7843 60.3714C32.3498 60.0063 32.1585 59.9716 30.4203 59.9716H28.5255L28.3517 59.311C28.2474 58.9634 27.0828 54.2526 25.7269 48.864C24.3884 43.4753 23.1543 38.8341 22.9978 38.5212C22.8587 38.2257 22.2677 37.4261 21.7115 36.7308L20.6859 35.4792L16.5835 19.1741C13.7328 7.82314 12.3595 2.64306 12.064 2.13896C11.1253 0.504974 8.91773 -0.381546 7.1273 0.157318ZM9.10894 2.81689C9.3523 2.92119 9.66519 3.18193 9.78687 3.37314C9.90855 3.58173 11.8902 11.1433 14.1673 20.1997L18.3044 36.6438L19.5039 38.1214L20.7033 39.6163L23.2933 49.7853L25.866 59.9716H22.233H18.6173L18.4435 59.311C18.3392 58.9634 17.2962 54.7741 16.1142 50.0112L13.9587 41.3546L14.2021 40.103C14.7236 37.3913 14.9496 38.5733 10.5169 20.8776C7.78785 9.92646 6.44937 4.31181 6.5189 3.99892C6.76226 2.92119 8.04859 2.33017 9.10894 2.81689ZM31.4632 81.4394V83.786H29.8988H28.3343V81.4394V79.0927H29.8988H31.4632V81.4394ZM37.3734 81.4394V83.8034L35.7742 83.7513L34.1576 83.6991L34.1054 81.3872L34.0533 79.0927H35.722H37.3734V81.4394ZM43.2488 81.3872L43.1966 83.6991L41.5974 83.7513L39.9808 83.8034V81.4394V79.0927H41.6322H43.3009L43.2488 81.3872ZM49.0199 81.4394V83.8034L47.4207 83.7513L45.8041 83.6991L45.7519 81.3872L45.6998 79.0927H47.3685H49.0199V81.4394ZM54.8953 81.3872L54.8431 83.6991L53.2439 83.7513L51.6273 83.8034V81.4394V79.0927H53.2787H54.9474L54.8953 81.3872ZM60.6664 81.4394V83.786H59.1019H57.5374V81.4394V79.0927H59.1019H60.6664V81.4394ZM25.6748 83.7339C25.64 83.7687 24.371 83.7687 22.8587 83.7513L20.1123 83.6991L22.146 81.9608C23.2759 81.0048 24.5101 80.0487 24.9099 79.8228L25.64 79.4403L25.6921 81.5437C25.7095 82.7083 25.7095 83.6817 25.6748 83.7339ZM64.647 80.1704C65.3771 80.6571 68.8363 83.5774 68.8363 83.7165C68.8363 83.7513 67.5847 83.786 66.055 83.786H63.2738V81.6132C63.2738 79.1622 63.2216 79.2317 64.647 80.1704Z" fill="#5CC3FD"/>
<path d="M42.2402 19.0689C38.4508 19.4687 34.557 20.8594 31.5672 22.841C28.8729 24.6488 25.9004 27.6039 25.9004 28.5078C25.9004 29.151 26.4914 29.7246 27.1693 29.7246C27.6387 29.7246 27.9516 29.4986 29.2031 28.2297C31.0631 26.335 33.0273 24.8574 34.9916 23.8666C40.9191 20.8941 47.5768 20.8246 53.5217 23.658C55.851 24.7705 57.2068 25.7439 59.5014 27.9516C61.1875 29.5855 61.4135 29.7594 61.848 29.6377C62.5607 29.4639 62.9258 29.0467 62.9258 28.4035C62.9258 27.0477 58.5453 23.1713 55.0166 21.4156C51.2793 19.5557 46.273 18.6344 42.2402 19.0689Z" fill="#5CC3FD"/>
<path d="M41.5975 24.4232C38.1036 24.962 34.7487 26.5786 32.1761 28.9601C29.8815 31.0808 29.2731 32.228 30.0727 33.0276C30.8028 33.7577 31.3243 33.5144 33.1669 31.6718C35.4266 29.3773 37.6516 28.0735 40.5893 27.2739C42.5884 26.7177 46.4126 26.7177 48.4116 27.2739C51.4015 28.0909 54.287 29.8466 56.2339 32.0368C57.1378 33.0798 57.329 33.2015 57.8852 33.2015C58.8239 33.2015 59.4149 32.4019 59.102 31.5675C58.8587 30.9069 56.877 28.8905 55.3821 27.778C51.4884 24.8751 46.4995 23.6583 41.5975 24.4232Z" fill="#5CC3FD"/>
<path d="M42.276 29.5509C39.2513 30.1072 36.3658 31.7586 34.4711 34.0531C33.4455 35.322 33.2717 36.0521 33.8974 36.6779C34.4885 37.2689 35.2359 37.1298 36.0008 36.2955C36.3832 35.8783 36.6787 35.4959 36.6787 35.4263C36.6787 35.2177 38.8515 33.5838 39.7728 33.1318C40.2943 32.8711 41.3025 32.506 42.0326 32.3148C45.8916 31.324 49.8201 32.6451 52.7404 35.913C53.5053 36.7648 53.6443 36.8691 54.2006 36.817C54.9654 36.7474 55.5564 36.0521 55.3826 35.3916C55.2262 34.731 53.7139 33.0101 52.4971 32.0888C51.2107 31.1328 49.3334 30.2115 47.8906 29.8117C46.6217 29.4814 43.5275 29.3423 42.276 29.5509Z" fill="#5CC3FD"/>
<path d="M42.4314 34.8712C41.093 35.2362 39.9457 35.8967 38.9375 36.9223C37.8424 38.0348 37.373 38.7997 37.373 39.4602C37.373 40.5553 38.7463 41.0942 39.4764 40.2772C39.6502 40.0686 40.1369 39.5124 40.5367 39.0604C41.4928 37.9479 42.7096 37.3395 44.1523 37.2526C46.1514 37.1135 47.5594 37.861 49.315 40.0339C49.8539 40.677 50.7578 40.6944 51.2619 40.0512C51.4705 39.7905 51.627 39.4776 51.627 39.3385C51.627 38.4694 49.6105 36.2096 48.1852 35.4796C46.499 34.6104 44.2566 34.3844 42.4314 34.8712Z" fill="#5CC3FD"/>
<path d="M43.4576 39.9637C41.9801 40.4504 40.9893 41.4239 40.5721 42.8493C40.0506 44.6745 40.7981 46.4997 42.4668 47.4557C44.9004 48.8463 47.9076 47.4905 48.4986 44.7266C48.8811 43.0057 47.9598 41.111 46.3606 40.3114C45.5957 39.9116 44.1356 39.7377 43.4576 39.9637ZM45.0916 42.5885C45.6305 42.7971 46.1172 43.6836 45.9608 44.2051C45.7522 44.9178 45.1785 45.3698 44.518 45.3698C43.336 45.3524 42.6754 44.3094 43.1969 43.2838C43.5967 42.519 44.2746 42.2756 45.0916 42.5885Z" fill="#5CC3FD"/>
</g>
<defs>
<clipPath id="clip0_1_4384">
<rect width="89" height="89" fill="white"/>
</clipPath>
</defs>
</svg>
