<svg width="100" height="100" viewBox="0 0 100 100" fill="none" xmlns="http://www.w3.org/2000/svg">
<path d="M48.3599 3.24203C46.9927 3.67172 45.4497 5.25375 45.0396 6.64047C44.6294 8.02719 44.6489 8.94516 45.1177 10.2342C45.7036 11.7772 46.856 12.8709 48.4966 13.4764L49.0239 13.6717V19.8241V25.9764H48.0083C47.4419 25.9764 46.6411 26.035 46.2505 26.0936L45.5083 26.2303V24.453V22.6952L42.2856 19.6092L39.063 16.5233V15.6053C39.063 14.7264 39.0825 14.7069 39.8833 14.4725C40.3911 14.3163 41.0552 13.8475 41.7192 13.1834C43.4771 11.4256 43.8286 9.00375 42.6567 6.81625C40.5669 2.98813 34.8247 3.2225 33.0278 7.22641C32.5005 8.39828 32.481 10.5272 32.9888 11.66C33.4771 12.7147 34.7466 13.9452 35.8403 14.3944L36.7192 14.7459V16.1131V17.4803L39.9419 20.6053L43.1841 23.7303L43.1646 25.0389C43.1646 26.2498 43.1255 26.367 42.7349 26.4452C42.481 26.5038 41.6216 26.66 40.8208 26.8163L39.356 27.0897L31.2505 18.9061L23.145 10.7225L20.8794 10.742H18.6138L18.3989 9.98032C18.0669 8.9061 16.7974 7.55844 15.5864 7.01157C12.9692 5.85922 9.90283 6.93344 8.53564 9.4725C7.93018 10.5858 7.93018 13.242 8.53564 14.3553C9.06299 15.3514 10.0005 16.2303 11.1333 16.8163C12.4224 17.4803 14.395 17.4413 15.7427 16.7381C16.9341 16.1327 18.0864 14.8631 18.3989 13.828L18.6138 13.0858H20.3911H22.1685L26.7583 17.7147C29.2778 20.2733 32.52 23.5545 33.9458 25.0194L36.5435 27.6756L33.7505 28.5741C32.2075 29.0819 30.8989 29.492 30.8403 29.492C30.7817 29.492 28.8481 27.4608 26.563 24.9803C24.2778 22.4998 22.1685 20.3123 21.9146 20.0975C21.4849 19.7655 21.0942 19.7264 18.4575 19.7264C15.7427 19.7264 15.4302 19.7655 14.9614 20.1366C14.3755 20.5858 14.3169 21.0155 14.7661 21.6405C15.0396 22.0506 15.1958 22.0702 17.8716 22.0702H20.6646L24.6099 26.3084L28.5356 30.5467L26.1333 31.7772C24.8052 32.4413 23.6724 32.9881 23.6138 32.9881C23.5356 33.0077 22.4419 31.8163 21.1724 30.3709L18.8872 27.7342H16.5044H14.1216L13.7896 26.8944C12.7935 24.2772 9.72705 22.8319 7.01221 23.7303C4.74658 24.492 3.10596 27.0116 3.37939 29.3358C4.04346 34.8241 11.4458 36.035 13.6724 30.9959L14.0825 30.078L15.9771 30.0975H17.8716L19.2388 31.6795C20.0005 32.5389 20.8013 33.4959 21.0552 33.8084L21.5044 34.3553L20.0786 35.3123C15.1177 38.6717 10.0005 43.5545 6.27002 48.4959C5.72314 49.2186 5.27393 49.9413 5.27393 50.0975C5.27393 50.5077 7.93018 53.9452 9.92236 56.0936C13.2427 59.6873 16.9146 62.8319 20.606 65.2733C21.5825 65.9178 22.4028 66.4647 22.4419 66.5038C22.481 66.5428 21.3872 67.8123 20.0005 69.3358L17.5005 72.0702H15.8013H14.0825L13.6138 71.035C12.6958 69.0038 10.8208 67.7733 8.67236 67.7733C6.4458 67.7733 4.35596 69.2381 3.57471 71.3475C3.28174 72.1483 3.28174 74.1405 3.57471 74.9413C4.66846 77.8709 8.08643 79.3358 10.8599 78.0467C12.0903 77.4803 13.145 76.4061 13.6138 75.2733L13.9653 74.4139H15.9575C17.0513 74.4139 18.145 74.3358 18.3989 74.2381C18.6528 74.1405 19.6685 73.1639 20.6841 72.0506C21.6997 70.9373 22.9888 69.5116 23.5747 68.9061L24.6099 67.7928L27.0122 68.9452C28.3208 69.5702 30.4302 70.4491 31.6802 70.9178C32.9497 71.3866 33.9849 71.8553 33.9849 71.9334C33.9849 72.0116 31.2896 74.8631 27.9888 78.242L21.9731 84.3749L18.0864 84.3358L14.1997 84.2772L13.9458 83.5155C13.5552 82.4217 12.5005 81.2303 11.4067 80.6639C10.1763 80.0389 7.73486 79.9803 6.64111 80.5467C5.68408 81.035 4.53174 82.1678 4.04346 83.1053C3.43799 84.2186 3.43799 86.6795 4.04346 87.7928C5.8208 91.1327 10.0396 91.8358 12.6958 89.2577C13.2817 88.6913 13.731 88.0467 13.8872 87.5389L14.1216 86.7381L18.5942 86.6795L23.0669 86.6209L25.1567 84.4725C26.3091 83.2811 29.395 80.1366 31.9927 77.4803L36.7388 72.617L37.9888 72.8709C38.6919 73.0077 39.3364 73.1639 39.4341 73.2225C39.5317 73.3006 39.5513 75.2733 39.4927 77.8514L39.395 82.3827L36.9731 84.6678L34.5513 86.953L33.5942 86.5428C31.0356 85.4295 28.0474 86.5428 26.7778 89.0819C25.938 90.7811 25.938 92.2264 26.7778 93.9256C28.1255 96.6405 31.2114 97.6366 33.9653 96.2694C35.9575 95.2733 37.0317 93.4178 36.8755 91.2303C36.8169 90.5077 36.6411 89.6678 36.4653 89.3163L36.1333 88.7108L38.9458 85.9959L41.7583 83.3006L41.8364 78.5741C41.895 75.9569 41.9731 73.7889 42.0122 73.7303C42.0708 73.6913 42.6372 73.7303 43.2622 73.828C43.9067 73.9256 45.4692 74.0819 46.7192 74.1405L49.0239 74.2772V79.5702V84.8436L47.9302 85.9569L46.8364 87.0702L45.9575 86.6795C44.8442 86.1913 42.6763 86.2499 41.5239 86.8163C39.1606 87.9686 38.0083 90.6444 38.7505 93.2616C39.2192 94.8436 40.7036 96.328 42.2856 96.7967C45.02 97.578 47.8521 96.2499 48.9263 93.6717C49.3364 92.6952 49.2974 90.5272 48.8481 89.5506L48.4966 88.7694L49.9224 87.285L51.3677 85.7811V80.0389V74.2772L53.4771 74.1405C54.6294 74.0819 56.0747 73.9647 56.6997 73.9061L57.813 73.7694V76.1717V78.5936L60.7427 81.5428L63.6724 84.492V85.3905C63.6724 86.2499 63.6333 86.328 62.9497 86.6405C60.645 87.7342 59.4927 90.4881 60.2349 93.0663C60.7036 94.6483 62.188 96.1327 63.77 96.6014C66.5435 97.4022 69.5122 95.9569 70.4302 93.3983C70.5669 93.0077 70.6841 92.1092 70.6841 91.4061C70.7036 89.1014 69.4732 87.3241 67.2661 86.4256L66.1138 85.9569L65.9966 84.6678L65.8794 83.3788L63.0278 80.5077L60.1567 77.6366V75.4686V73.3202L62.1099 72.8709C63.2036 72.6366 65.0005 72.1483 66.1138 71.7967L68.1646 71.1327V73.867V76.6014L73.0669 81.6209C75.7817 84.3749 78.3599 86.992 78.8286 87.4413L79.6685 88.2811H82.7935H85.9185L86.3286 89.1991C87.188 91.1717 89.2778 92.578 91.3091 92.578C93.2036 92.578 95.2935 91.2499 96.1919 89.453C96.6997 88.4569 96.7974 86.5819 96.4067 85.41C95.1177 81.5428 89.8638 80.5272 87.2075 83.6522C86.8169 84.1014 86.4067 84.785 86.2896 85.1952L86.0747 85.9374H83.3599H80.645L75.5864 80.8202L70.5278 75.6834L70.5083 72.9491V70.2147L72.4224 69.3358C73.4575 68.8475 74.3755 68.4569 74.4341 68.4569C74.5122 68.4569 76.1528 70.1952 78.106 72.3241L81.6607 76.1717H83.77H85.8599L86.1138 76.8944C86.7778 78.7303 88.9849 80.1561 91.1528 80.1366C95.6646 80.117 98.1255 74.7459 95.1958 71.3084C92.5591 68.242 87.6567 69.0233 86.1138 72.7733L85.6646 73.828H84.1802H82.6958L79.7271 70.6053C76.9732 67.6366 76.4849 66.992 76.9341 66.992C77.2466 66.992 81.8169 63.867 83.731 62.3436C88.3403 58.6522 94.9224 51.4452 94.9224 50.078C94.9224 49.5311 92.8521 46.8358 90.1958 43.9256C88.4575 42.0311 87.1489 40.8006 83.7505 37.8709L83.2036 37.4022L84.4927 35.9373C85.1958 35.1366 85.8403 34.453 85.938 34.4139C86.0161 34.3748 86.1528 34.6092 86.2114 34.9022C86.4263 35.8592 87.7153 37.3436 88.8482 37.9295C89.7075 38.3788 90.1372 38.4764 91.2896 38.4764C93.4185 38.4569 94.981 37.578 96.0357 35.8006C96.7778 34.5311 96.895 32.4998 96.2896 31.0936C95.4692 29.1795 93.3208 27.7342 91.3091 27.7342C89.356 27.7342 87.1489 29.2186 86.3482 31.0545C85.9771 31.8944 85.8599 32.0311 85.3716 32.0311C84.9028 32.0311 84.5122 32.3631 83.106 33.9842C82.1489 35.0584 81.3286 35.9373 81.2896 35.9373C81.231 35.9373 80.2544 35.3319 79.1216 34.5897C77.9888 33.867 76.4653 32.9295 75.7427 32.5389L74.4146 31.7967V29.7264V27.6366L77.1099 24.9413L79.7857 22.2655H82.9302H86.0747L86.2896 23.0077C86.6021 24.0428 87.7544 25.3123 88.9458 25.9178C90.1372 26.5428 92.2075 26.6405 93.3989 26.1327C94.5122 25.6444 95.8013 24.3358 96.2896 23.203C96.8364 21.9334 96.7778 19.8631 96.1333 18.6522C94.8247 16.1131 91.7388 15.0389 89.1021 16.2108C87.8911 16.7381 86.6216 18.0663 86.2896 19.16L86.0747 19.9217H82.4419H78.7896L75.4302 23.3006L72.0708 26.6795V28.6913C72.0708 30.2342 72.0122 30.6834 71.8364 30.6053C71.6997 30.5272 70.3521 29.9998 68.8482 29.4139L66.1138 28.3397V26.328V24.3163L70.2739 20.4491C72.5591 18.3397 74.4536 16.6014 74.4927 16.6014C74.5317 16.6014 74.9419 16.7772 75.4107 16.992C76.4263 17.4413 78.4185 17.4998 79.5317 17.1092C82.1294 16.1717 83.6138 13.0272 82.7153 10.3319C82.2075 8.82797 80.7036 7.36313 79.1997 6.91391C76.5825 6.17172 73.8872 7.3436 72.7349 9.72641C72.2271 10.7616 72.1489 12.8905 72.5396 13.9647L72.8716 14.8241L72.2857 15.3709C71.9536 15.6639 69.8833 17.578 67.6763 19.6288L63.6724 23.3397V25.4295C63.6724 26.6014 63.6138 27.5389 63.5356 27.5389C63.438 27.5389 62.3442 27.3436 61.0942 27.1092L58.7896 26.66V23.5545V20.4491L60.7622 18.1248C62.3442 16.2498 62.7544 15.6444 62.8325 15.0194C62.9106 14.4725 63.0278 14.2577 63.2622 14.2577C63.7896 14.2577 65.3325 13.203 65.8794 12.4608C67.5005 10.3319 67.3052 7.18735 65.4302 5.31235C63.3989 3.2811 60.1567 3.20297 58.0474 5.13657C56.895 6.21078 56.4067 7.22641 56.2896 8.8475C56.2114 10.0194 56.2505 10.2733 56.8169 11.4061C57.481 12.7733 58.4771 13.7108 59.688 14.1405C60.0981 14.2772 60.4497 14.4725 60.4888 14.5702C60.5083 14.6678 59.6294 15.8397 58.4966 17.1678L56.4458 19.6092V22.8514C56.4458 24.6483 56.4067 26.1522 56.3677 26.1913C56.3286 26.2303 55.1763 26.1913 53.8286 26.0936L51.3677 25.8983V19.8045V13.6913L52.3052 13.2811C54.3169 12.3827 55.4692 10.6053 55.4692 8.33969C55.4692 7.61703 55.3325 6.7186 55.1763 6.32797C54.0825 3.73032 51.0942 2.36313 48.3599 3.24203ZM51.5435 5.66391C53.5942 6.69907 53.6919 9.72641 51.7192 10.9373C50.8599 11.4647 49.3755 11.4647 48.5161 10.9373C47.813 10.4881 47.0708 9.16 47.0708 8.33969C47.0708 6.07407 49.5122 4.60922 51.5435 5.66391ZM62.9888 6.44516C65.8403 7.83188 64.8052 12.1092 61.6216 12.1092C58.8286 12.1092 57.5396 8.80844 59.6099 6.89438C60.5669 5.99594 61.7388 5.83969 62.9888 6.44516ZM39.5708 6.83578C40.4497 7.38266 41.0942 8.76938 40.9575 9.80453C40.6841 11.8944 38.5552 13.0467 36.6411 12.1288C35.5083 11.5623 34.9614 10.703 34.9614 9.45297C34.9614 7.67563 36.1919 6.44516 37.9692 6.44516C38.5942 6.44516 39.1411 6.58188 39.5708 6.83578ZM14.6489 9.2186C15.8989 9.86313 16.3091 10.5272 16.3091 11.9139C16.3091 13.3006 15.8989 13.9452 14.6294 14.6092C12.6763 15.6248 10.3521 14.1795 10.3521 11.9139C10.3521 10.9178 10.7622 10.117 11.563 9.51157C12.6567 8.69125 13.4575 8.61313 14.6489 9.2186ZM79.2583 9.51157C80.5864 10.5077 80.9966 12.0506 80.2935 13.4178C79.7661 14.4725 78.8286 15.0389 77.6177 15.0389C75.8599 15.0389 74.6099 13.8084 74.6099 12.1092C74.6099 10.8983 75.1567 9.96078 76.1919 9.41391C77.2075 8.86703 78.4575 8.9061 79.2583 9.51157ZM93.106 18.6717C94.8442 19.9803 94.7466 22.3436 92.9107 23.7108C92.52 23.9842 92.0708 24.1014 91.3286 24.1014C89.4536 24.1014 88.1255 22.5975 88.3403 20.742C88.4575 19.6483 88.9653 18.9647 90.0591 18.3983C91.1138 17.8514 92.1489 17.9491 93.106 18.6717ZM10.5278 26.3475C12.8521 28.0077 11.6802 31.8358 8.82861 31.8358C6.68018 31.8358 5.13721 29.7459 5.87939 27.7928C6.15283 27.0702 6.79736 26.3866 7.52002 26.0545C8.34033 25.6639 9.76611 25.8202 10.5278 26.3475ZM55.3716 29.3748C57.5786 29.9413 61.0552 31.5623 62.6958 32.7928C68.3599 37.0311 71.4849 43.242 71.4849 50.2342C71.4849 60.6053 63.8677 69.5116 53.5552 71.2108C50.938 71.6405 47.4224 71.4842 44.8638 70.8202C36.1528 68.5741 29.9028 61.3084 28.8872 52.2459C28.1841 46.035 30.5083 39.5506 35.0396 35.0389C38.1841 31.9139 42.2466 29.7655 46.2896 29.1014C47.0903 28.9842 47.8911 28.8475 48.0474 28.8084C48.2036 28.7694 49.4927 28.7694 50.8794 28.8084C52.7739 28.867 53.9067 29.0038 55.3716 29.3748ZM37.1099 30.2342C31.7583 33.9061 28.2427 39.1795 26.8364 45.6053C26.3677 47.7342 26.3677 52.4413 26.8364 54.5897C28.1255 60.5858 31.2896 65.6248 35.9185 69.0623C36.7778 69.6873 37.4614 70.2342 37.4224 70.2538C37.3052 70.3709 33.2622 69.0623 31.2505 68.242C24.8833 65.6834 19.3169 62.0116 14.1997 57.0311C11.7583 54.6678 8.65283 51.2303 8.18408 50.3514C8.04736 50.117 8.3208 49.6483 9.31689 48.3983C10.9966 46.2889 15.8403 41.4452 17.9692 39.7655C23.3013 35.5272 29.5903 32.2264 35.8403 30.3709C37.6958 29.8045 37.7349 29.8045 37.1099 30.2342ZM65.6841 30.7811C75.0396 33.7303 84.0239 39.9413 90.6841 48.0272L92.3638 50.078L91.7388 50.8592C85.0591 59.5311 76.0552 65.9959 65.9771 69.3553C64.4146 69.8827 63.0083 70.3123 62.8716 70.3123C62.7349 70.3123 63.2622 69.8827 64.0044 69.3553C67.9497 66.5819 71.563 61.5038 72.9107 56.8358C74.4927 51.3475 74.0044 45.0584 71.563 39.9413C70.02 36.66 67.2271 33.2811 64.1606 30.9959C63.3013 30.3514 62.813 29.8827 63.0864 29.9608C63.3599 30.0389 64.5317 30.41 65.6841 30.7811ZM92.9497 30.6053C93.8286 31.2694 94.3364 32.2069 94.3364 33.1834C94.3364 34.9217 93.0864 36.1327 91.2896 36.1327C87.9692 36.1327 87.1489 31.5819 90.2349 30.2928C90.938 29.9998 92.3442 30.1561 92.9497 30.6053ZM10.1567 70.5272C11.6021 71.3475 12.1099 73.1639 11.3091 74.6092C10.1177 76.7186 6.97314 76.6405 5.95752 74.492C5.52783 73.5741 5.64502 72.1483 6.21143 71.3475C7.0708 70.1366 8.80908 69.785 10.1567 70.5272ZM92.7349 72.2069C93.7114 72.9295 94.0435 73.5936 94.0435 74.7655C94.0435 75.6248 93.9458 76.035 93.5942 76.5233C92.3247 78.2811 89.7661 78.203 88.5357 76.367C87.52 74.8827 88.2817 72.6366 90.0396 71.8944C90.7232 71.6014 92.1489 71.7577 92.7349 72.2069ZM10.2935 82.7342C12.4419 83.7694 12.481 86.992 10.3521 88.1053C8.92627 88.867 7.0708 88.3202 6.27002 86.9139C4.82471 84.3553 7.59814 81.4647 10.2935 82.7342ZM92.9888 84.6288C94.3169 85.5077 94.7466 87.4217 93.9067 88.6717C93.1646 89.7459 92.481 90.1366 91.3091 90.1366C88.3208 90.1366 87.1685 86.3084 89.6489 84.6092C90.5474 84.0038 92.0708 84.0038 92.9888 84.6288ZM33.0083 88.867C35.0981 89.9217 35.0396 93.2225 32.9302 94.2186C30.938 95.1561 28.77 93.9647 28.5552 91.7967C28.3208 89.3553 30.7817 87.7342 33.0083 88.867ZM66.9536 88.867C67.8521 89.4334 68.3599 90.3514 68.3599 91.4842C68.3599 94.5116 64.688 95.6053 62.8325 93.1444C61.9341 91.9139 62.4028 89.7459 63.731 88.8866C64.5708 88.3397 66.0942 88.3397 66.9536 88.867ZM45.4692 89.0624C46.3677 89.6288 46.8755 90.5467 46.8755 91.6795C46.8755 94.7069 43.2036 95.8006 41.3481 93.3397C40.4497 92.1092 40.9185 89.9413 42.2466 89.0819C43.0864 88.535 44.6099 88.535 45.4692 89.0624Z" fill="#5CC3FD"/>
<path d="M48.242 38.6133C44.824 39.1797 41.3084 41.8164 39.7654 44.9219C38.0662 48.3984 38.0857 51.8555 39.8435 55.3906C41.7185 59.1992 45.7615 61.7188 50.0193 61.7188C52.0896 61.7188 53.3201 61.4453 55.2341 60.5078C58.2029 59.1016 60.5857 56.1914 61.406 53.0078C61.7966 51.5039 61.7966 48.6914 61.4256 47.2656C60.3318 43.1641 57.0896 39.9023 53.0271 38.8672C51.6209 38.4961 49.531 38.3984 48.242 38.6133ZM52.4412 41.1133C55.117 41.8164 57.324 43.6719 58.5545 46.2305C59.199 47.6172 59.2771 47.9297 59.3357 49.707C59.3943 51.3281 59.3357 51.875 58.9841 52.9297C56.7771 59.4922 48.6131 61.543 43.6716 56.7578C39.8826 53.0664 39.9607 47.0312 43.8084 43.418C46.2498 41.1523 49.3552 40.3125 52.4412 41.1133Z" fill="#5CC3FD"/>
</svg>
