<svg width="141" height="141" viewBox="0 0 141 141" fill="none" xmlns="http://www.w3.org/2000/svg">
<path d="M79.0377 28.9152C73.1168 29.6312 64.4695 32.5779 63.6158 34.1201C63.1477 35.0289 63.3129 36.0754 64.0289 36.7639C64.8551 37.6176 65.7639 37.6176 67.4162 36.7914C70.5281 35.2217 75.6229 33.7896 79.5334 33.3766L81.5162 33.1562V35.7174C81.5162 38.0857 81.5713 38.3611 82.2047 38.967C82.6178 39.4076 83.1961 39.6555 83.7193 39.6555C84.2426 39.6555 84.8209 39.4076 85.234 38.967C85.8674 38.3611 85.9225 38.0857 85.9225 35.7174V33.1562L87.9328 33.3766C91.9811 33.7896 96.883 35.2217 100.38 36.9566C102.473 38.0307 106.136 40.399 107.486 41.5832L108.532 42.492L106.714 44.3371C104.649 46.4852 104.401 47.4215 105.613 48.6057C106.797 49.8174 107.733 49.5695 109.881 47.4766L111.754 45.6865L112.801 46.9533C116.794 51.69 119.906 58.9328 120.704 65.432L121.062 68.1584L118.336 68.2961C115.885 68.4062 115.555 68.4889 115.086 69.0947C114.37 69.976 114.425 71.2152 115.252 72.0139C115.857 72.6473 116.133 72.7023 118.501 72.7023H121.062L120.842 74.6852C120.429 78.7609 118.997 83.6629 117.262 87.1604C116.188 89.2533 113.82 92.916 112.635 94.2654L111.727 95.3119L109.881 93.4943C107.733 91.4289 106.797 91.1811 105.613 92.3928C104.401 93.577 104.649 94.5133 106.742 96.6613L108.532 98.534L106.88 99.8834C101.978 103.849 94.4045 106.961 88.0705 107.622L85.9225 107.842V105.281C85.9225 102.913 85.8674 102.637 85.234 102.031C84.3527 101.123 83.086 101.123 82.2047 102.031C81.5713 102.637 81.5162 102.913 81.5162 105.281V107.897L80.2219 107.76C76.449 107.429 71.5746 106.107 68.0496 104.482C65.6262 103.381 64.9102 103.326 64.0289 104.235C63.2027 105.033 63.1201 106.245 63.8361 107.099C64.4145 107.815 68.6279 109.66 71.8225 110.596C76.0635 111.808 78.8449 112.193 83.7193 112.193C90.5215 112.193 95.5336 111.064 101.62 108.2C106.329 105.97 109.964 103.408 113.434 99.9385C129.655 83.6354 129.462 56.8949 113.021 40.6744C107.045 34.7535 99.3891 30.843 90.8795 29.3283C87.9328 28.8051 81.7641 28.5848 79.0377 28.9152Z" fill="#5CC3FD"/>
<path d="M42.5479 42.5479C42.1072 42.9609 41.8594 43.5393 41.8594 44.0625C41.8594 44.5857 42.1072 45.1641 42.5479 45.5771L43.2088 46.2656H55.9043H68.5998L69.2607 45.5771C69.7014 45.1641 69.9492 44.5857 69.9492 44.0625C69.9492 43.5393 69.7014 42.9609 69.2607 42.5479L68.5998 41.8594H55.9043H43.2088L42.5479 42.5479Z" fill="#5CC3FD"/>
<path d="M94.0177 57.0596L88.1519 62.8704L86.7198 62.4297C82.4237 61.0253 77.6595 62.8153 75.8695 66.5055C74.823 68.626 74.6577 71.1596 75.4013 73.3903L75.9521 75.0151L74.878 76.1993C73.5837 77.6038 73.4185 78.8706 74.4374 79.8069C75.4564 80.7708 76.6405 80.6055 78.0726 79.2836L79.3118 78.127L80.7163 78.5952C84.9573 79.9446 89.6665 78.1821 91.5392 74.5745C92.6132 72.4264 92.806 69.8928 92.0349 67.6071L91.4566 65.9547L97.2398 60.144C102.362 54.9942 102.995 54.2506 102.995 53.4795C102.995 52.8737 102.748 52.3504 102.307 51.9098C101.866 51.4692 101.343 51.2213 100.737 51.2213C99.9661 51.2213 99.2226 51.8547 94.0177 57.0596ZM85.8937 66.8635C87.4083 67.6071 87.9866 68.626 87.9866 70.4987C87.9866 72.3713 87.4083 73.3903 85.8937 74.1338C83.9659 75.1252 81.2396 74.5469 80.0278 72.8946C79.5872 72.3163 79.4495 71.6829 79.4495 70.4987C79.4495 69.3145 79.5872 68.6811 80.0278 68.1028C80.7989 67.0563 82.231 66.3678 83.7181 66.3678C84.4066 66.3678 85.3704 66.5881 85.8937 66.8635Z" fill="#5CC3FD"/>
<path d="M29.3291 55.7666C28.8885 56.1797 28.6406 56.758 28.6406 57.2812C28.6406 57.8045 28.8885 58.3828 29.3291 58.7959L29.99 59.4844H47.4773C59.8975 59.4844 65.1574 59.4018 65.6531 59.1814C66.4518 58.7959 67.0576 57.5566 66.7822 56.7305C66.6721 56.4275 66.3416 55.9043 66.0111 55.6289C65.4604 55.1057 64.9646 55.0781 47.7252 55.0781H29.99L29.3291 55.7666Z" fill="#5CC3FD"/>
<path d="M16.1104 68.9854C15.6697 69.3984 15.4219 69.9768 15.4219 70.5C15.4219 71.0232 15.6697 71.6016 16.1104 72.0146L16.7713 72.7031H39.6563H62.5412L63.2022 72.0146C64.1109 71.1334 64.1109 69.8666 63.2022 68.9854L62.5412 68.2969H39.6563H16.7713L16.1104 68.9854Z" fill="#5CC3FD"/>
<path d="M29.3291 82.2041C28.8885 82.6172 28.6406 83.1955 28.6406 83.7188C28.6406 84.242 28.8885 84.8203 29.3291 85.2334L29.99 85.9219H47.4773C59.8975 85.9219 65.1574 85.8393 65.6531 85.6189C66.4518 85.2334 67.0576 83.9941 66.7822 83.168C66.6721 82.865 66.3416 82.3418 66.0111 82.0664C65.4604 81.5432 64.9646 81.5156 47.7252 81.5156H29.99L29.3291 82.2041Z" fill="#5CC3FD"/>
<path d="M42.5479 95.4229C42.1072 95.8359 41.8594 96.4143 41.8594 96.9375C41.8594 97.4607 42.1072 98.0391 42.5479 98.4521L43.2088 99.1406H55.9043H68.5998L69.2607 98.4521C69.7014 98.0391 69.9492 97.4607 69.9492 96.9375C69.9492 96.4143 69.7014 95.8359 69.2607 95.4229L68.5998 94.7344H55.9043H43.2088L42.5479 95.4229Z" fill="#5CC3FD"/>
</svg>
