<svg width="163" height="163" viewBox="0 0 163 163" fill="none" xmlns="http://www.w3.org/2000/svg">
<path d="M74.1783 0.350204C65.6781 1.27344 53.2939 4.83907 51.0654 6.97208C49.9511 8.02266 50.0148 10.1238 51.1291 11.2699C52.4343 12.5752 53.3576 12.5115 57.5918 10.8242C61.2847 9.35977 66.856 7.83165 70.8355 7.19493C72.4273 6.94025 73.7326 6.78107 73.7644 6.8129C73.7963 6.84473 74.0509 7.38594 74.3056 7.99083C74.7513 9.04141 74.7195 9.16876 73.8599 10.474C72.3 12.7662 72.2363 14.8037 73.5734 17.3506C75.1015 20.2477 77.6484 22.126 82.8695 24.1953L86.3396 25.5643L86.1168 26.5512C85.48 29.4164 85.3527 30.2123 85.3209 31.6131C85.3209 32.4727 85.1935 33.3959 85.0025 33.7143C84.6523 34.4147 82.8695 35.1787 80.8638 35.4971C76.4386 36.2293 73.8281 39.8586 73.7644 45.3662C73.7326 48.0723 73.9873 48.8682 75.4199 50.3963C76.6615 51.7652 78.0941 52.2428 80.8638 52.1791C83.7609 52.1154 84.1748 52.3064 86.9763 54.9488C89.3959 57.2092 91.1787 57.9414 94.2668 57.9414H96.0814L97.2275 59.9789C97.8642 61.0932 99.2013 62.9397 100.252 64.0857C101.303 65.2318 102.321 66.5053 102.544 66.8873C102.735 67.2693 103.022 69.0203 103.149 70.7395C103.372 73.4137 103.531 74.1459 104.295 75.3557C107.256 80.1311 114.196 78.8258 117.985 72.8406C118.462 72.0766 119.322 70.1664 119.895 68.6065C120.691 66.4098 121.041 65.7412 121.486 65.7412C121.9 65.7412 122.824 66.7918 124.224 68.9248C129.254 76.3744 133.202 78.1891 138.041 75.2602C139.792 74.2096 139.824 74.2096 140.811 74.7189C142.212 75.4193 144.727 75.3557 146.573 74.5279C147.433 74.1777 148.197 73.8594 148.261 73.8594C148.515 73.8594 148.038 79.749 147.528 83.251C145.745 94.9348 141.034 105.695 133.648 114.991C132.438 116.551 131.324 117.793 131.228 117.793C131.101 117.793 130.592 116.997 130.082 116.042C129.095 114.132 126.389 111.458 124.511 110.503C116.074 106.205 106.014 111.012 104.104 120.244C103.531 122.982 103.849 131.228 104.582 133.138L105.186 134.602L104.104 135.526C102.385 136.99 102.226 137.022 101.494 136.035C100.538 134.793 98.4691 132.788 96.941 131.578L95.6675 130.591L96.4316 128.585C97.1002 126.803 97.2275 125.879 97.3549 121.168C97.5459 112.795 96.5908 109.579 92.675 105.663C89.4595 102.448 85.8621 100.92 81.5006 100.92C77.139 100.92 73.6371 102.416 70.3261 105.695C66.4103 109.547 65.4234 112.795 65.6463 121.168C65.7736 125.752 65.9009 126.866 66.5377 128.585L67.2699 130.623L66.0283 131.61C64.532 132.788 62.4627 134.825 61.5076 136.035C60.7754 137.022 60.6162 136.99 58.897 135.526L57.8146 134.602L58.4195 133.138C59.1517 131.228 59.4701 122.982 58.897 120.244C56.9869 111.012 46.9267 106.205 38.4902 110.503C36.6119 111.458 33.9058 114.132 32.9189 116.042C32.4095 116.997 31.9002 117.793 31.7728 117.793C31.3908 117.793 27.6341 112.922 25.3738 109.516C20.2164 101.716 17.0328 93.1838 15.1545 82.2322C14.9953 81.2772 15.0271 81.2135 16.3324 81.0225C17.0646 80.8951 18.5927 80.4494 19.707 80.0356C20.8213 79.6217 21.9355 79.2715 22.222 79.2715C22.4767 79.2715 24.0685 80.6086 25.7558 82.2322C27.4431 83.8559 29.3851 85.4477 30.0855 85.7979C33.5875 87.4533 37.1531 86.4027 39.6363 83.06C41.9603 79.9082 41.8648 77.9025 39.1269 72.0129C37.1531 67.8106 37.0894 67.2693 38.4584 66.4416L39.509 65.8367L41.9603 68.1926C45.4304 71.5672 46.5765 72.1084 50.1422 72.0766C58.515 72.0129 62.8447 67.4922 60.8709 60.9022C59.1836 55.3945 54.3763 51.5106 45.4623 48.4225C40.0183 46.576 40.0502 46.576 39.2224 44.0291C37.5351 38.8399 35.7205 37.057 31.6136 36.5795C29.0668 36.293 26.4244 35.6881 26.4244 35.4334C26.4244 35.115 28.8439 31.9633 30.8177 29.7029C33.2054 26.9332 33.5875 26.1055 33.1099 24.641C32.6324 23.2402 31.6773 22.6035 30.0855 22.6035C28.9394 22.6035 28.5892 22.7945 27.1884 24.259C19.4205 32.3135 12.7668 45.1752 10.0607 57.3047C8.75543 63.258 8.43708 66.2824 8.46891 73.3818C8.46891 80.9588 8.91461 84.7154 10.6656 91.5602C12.0664 97.0041 13.5945 101.079 16.1414 106.109C19.4841 112.667 22.6359 117.252 28.048 123.205L30.7859 126.229L31.0088 128.681C31.1361 130.018 31.4863 131.864 31.8047 132.82L32.3777 134.507L30.1492 136.576C27.3476 139.155 25.2146 142.402 24.0367 145.84C23.1771 148.324 23.1134 148.929 22.9861 154.341C22.9224 157.556 22.9543 160.517 23.0498 160.963C23.1771 161.376 23.7183 162.013 24.2914 162.363C25.2783 163 26.2015 163 81.5006 163C136.8 163 137.723 163 138.71 162.363C139.283 162.013 139.824 161.376 139.951 160.963C140.047 160.517 140.079 157.556 140.015 154.341C139.888 148.992 139.824 148.324 138.996 145.968C137.786 142.434 135.717 139.25 132.947 136.672L130.623 134.507L131.196 132.851C131.483 131.96 131.833 130.113 131.961 128.745L132.215 126.229L134.953 123.205C143.803 113.4 149.311 103.435 152.367 91.5283C154.087 84.8109 154.532 80.9906 154.532 73.2227C154.532 65.5184 154.118 61.8572 152.367 54.9488C147.178 34.4783 132.916 16.9367 113.846 7.6088C111.395 6.39903 108.179 4.99825 106.683 4.45703C103.022 3.11993 96.4316 1.43262 92.3248 0.795898C88.3453 0.191025 77.9986 -0.0955048 74.1783 0.350204ZM88.8228 6.68555C101.048 8.18184 112.318 12.7025 121.932 19.993C125.243 22.508 131.101 28.2703 133.711 31.5176C139.506 38.808 143.772 47.3719 146.159 56.477C147.114 60.2018 148.165 66.4098 147.878 66.8555C147.592 67.333 143.612 68.8611 143.199 68.6383C142.976 68.5109 142.435 68.2244 141.989 67.9697C141.543 67.715 140.524 67.4922 139.728 67.4922C138.551 67.4922 137.882 67.715 136.545 68.6383C135.59 69.275 134.603 69.9117 134.285 70.0709C133.489 70.5166 132.024 69.1158 129.828 65.773C127.599 62.3666 126.389 61.0295 124.638 60.0107C121.996 58.4508 119.353 58.7055 117.125 60.7111C115.692 62.0164 114.705 63.7674 113.655 66.9828C113.145 68.5109 112.541 69.5615 111.617 70.5484C110.853 71.3125 110.121 71.9492 109.93 71.9492C109.771 71.9492 109.516 70.7713 109.421 69.3068C109.166 65.5184 108.338 63.64 105.696 60.6793C104.486 59.3104 102.862 57.0182 102.13 55.6174C100.316 52.2428 99.2013 51.5742 95.2855 51.5742H92.6113L90.3828 49.4731C87.422 46.7033 85.4164 45.7801 82.2965 45.8119H79.8769L80.0998 44.634C80.4818 42.6283 80.8002 42.0553 81.7234 41.8324C85.8621 40.941 87.8359 40.0496 89.364 38.4578C90.7648 36.9934 91.3379 35.4652 91.6881 32.218C91.8472 30.6898 92.1974 28.6523 92.484 27.6973C93.057 25.7234 92.8978 24.259 91.9427 22.6035C90.9877 20.9162 89.4277 19.8975 85.2572 18.2738C82.3283 17.1277 81.1185 16.491 80.1953 15.5678L78.9537 14.3262L79.7496 13.1164C80.4818 12.0022 81.2459 9.23242 81.023 8.46837C80.9593 8.27734 80.832 7.73615 80.7365 7.22676L80.5455 6.36719H83.347C84.8752 6.36719 87.3584 6.52637 88.8228 6.68555ZM24.9281 41.7051C25.724 42.0553 27.5705 42.501 29.0349 42.692C30.4994 42.8512 31.8365 43.1695 32.0593 43.3924C32.2504 43.6152 32.8552 45.0479 33.4283 46.6397C34.9246 50.9375 36.0388 51.8607 42.5015 54.1211C49.5054 56.5725 52.8482 58.6736 54.249 61.4752C55.2359 63.4809 55.2677 64.0221 54.4718 64.7543C53.7396 65.4229 50.365 66.0596 49.1552 65.773C48.614 65.6139 47.1814 64.4678 45.6851 62.9715C42.9472 60.2018 41.8011 59.5332 39.7955 59.5332C37.2804 59.5332 33.3646 61.5389 32.1549 63.4809C30.4357 66.3143 30.6904 68.893 33.3009 74.5598C34.256 76.5973 35.0201 78.3801 35.0201 78.5074C35.0201 78.9531 33.6511 80.2266 33.1736 80.2266C32.9507 80.2266 31.4545 78.9213 29.8627 77.3613C28.2709 75.7695 26.297 74.1141 25.4375 73.7002C23.4 72.6496 21.0123 72.6496 18.4654 73.6684C17.4466 74.0822 16.1414 74.5279 15.632 74.6553L14.6451 74.8781V71.7264C14.6451 63.7037 16.8099 54.1211 20.4074 46.0348C22.0629 42.31 22.7632 41.0684 23.209 41.0684C23.3681 41.0684 24.1322 41.3549 24.9281 41.7051ZM85.5437 108.179C87.6131 109.261 89.0457 110.662 90.0008 112.636C90.8603 114.418 90.8922 114.578 90.8922 120.021C90.8922 126.389 90.6056 127.471 88.2816 129.795C86.3078 131.769 84.334 132.565 81.5006 132.565C78.6672 132.565 76.6933 131.769 74.7195 129.795C72.5228 127.598 72.1408 126.293 72.0134 120.626C71.9498 117.666 72.0453 115.151 72.2363 114.387C73.0004 111.553 75.9611 108.465 78.7627 107.605C80.3863 107.096 84.0474 107.414 85.5437 108.179ZM47.5634 115.628C49.3144 116.138 51.9568 118.78 52.4662 120.531C52.9756 122.314 52.9437 129.381 52.4025 130.941C50.4287 136.385 43.3293 137.786 39.4453 133.488C37.6943 131.578 37.4078 130.368 37.4078 125.434C37.4396 122.25 37.567 120.849 37.9172 120.021C39.6045 116.265 43.584 114.45 47.5634 115.628ZM121.805 116.392C124.925 118.302 125.944 121.104 125.657 126.898C125.498 130.559 124.861 132.342 123.174 133.934C119.895 137.054 114.546 136.672 111.84 133.138C111.267 132.374 110.662 131.26 110.471 130.591C110.026 128.967 110.057 122.123 110.535 120.531C111.012 118.939 113.687 116.169 115.247 115.66C117.22 114.991 120.086 115.31 121.805 116.392ZM72.2363 136.067C72.9049 136.863 76.8843 138.454 79.2084 138.868C81.023 139.187 81.9781 139.187 83.8246 138.868C86.0849 138.454 89.7461 136.99 90.7967 136.035C91.2742 135.589 91.4334 135.621 92.4521 136.226C94.1394 137.277 97.132 140.683 98.3099 142.848C99.8699 145.809 100.602 149.088 100.602 153.195V156.633H81.5006H62.399V153.195C62.399 147.337 63.959 142.88 67.2381 139.282C68.8299 137.531 71.122 135.621 71.6314 135.621C71.7588 135.621 72.0453 135.812 72.2363 136.067ZM38.6812 140.874C42.8836 142.943 47.1814 142.943 51.4474 140.874C52.7209 140.269 53.8351 139.76 53.9306 139.76C54.058 139.76 54.9175 140.492 55.8408 141.352L57.5281 142.943L56.9232 145.108C56.4775 146.573 56.2547 148.674 56.1273 151.921L55.9363 156.633H42.6289H29.2896V153.672C29.2896 148.483 30.5949 145.172 33.9377 141.734C35.0201 140.651 36.0388 139.76 36.1662 139.76C36.3254 139.76 37.4396 140.269 38.6812 140.874ZM111.554 140.874C115.82 142.943 120.118 142.943 124.384 140.842L126.676 139.696L127.631 140.365C129 141.352 130.91 143.58 131.897 145.395C133.138 147.687 133.711 150.329 133.711 153.672V156.633H120.372H107.065L106.874 152.08C106.778 148.992 106.524 146.827 106.078 145.267L105.441 142.975L107.16 141.352C108.084 140.492 108.943 139.76 109.07 139.76C109.166 139.76 110.28 140.269 111.554 140.874Z" fill="#5CC3FD"/>
<path d="M38.9049 13.8493C37.154 15.3456 37.5042 17.988 39.5735 18.9749C42.7571 20.503 45.495 16.4917 43.0118 13.9767C41.802 12.7669 40.2421 12.7351 38.9049 13.8493Z" fill="#5CC3FD"/>
</svg>
