<svg width="146" height="146" viewBox="0 0 146 146" fill="none" xmlns="http://www.w3.org/2000/svg">
<path d="M66.9547 0.427734C50.5012 2.68047 36.443 14.3148 31.2246 30.0555C29.1145 36.4145 28.8008 39.4656 28.8008 54.5219C28.8008 64.6449 28.8578 66.4414 29.2 66.4414C29.4281 66.4414 30.7398 66.1562 32.1371 65.8426C33.5059 65.5004 36.5 64.873 38.7812 64.4738L42.916 63.6754L43.0871 51.5848C43.2297 39.6652 43.2582 39.4656 43.9711 36.9277C47.5355 24.6375 57.9152 15.9117 70.2055 14.8566C85.1191 13.602 98.1508 22.8125 102.143 37.441C102.742 39.6367 102.799 40.5207 102.941 51.7273L103.084 63.6754L106.791 64.3598C108.844 64.7305 111.867 65.3578 113.549 65.7285C115.232 66.1277 116.714 66.4414 116.886 66.4414C117.313 66.4414 117.313 44.1992 116.886 40.1785C116.287 34.1047 114.775 28.9719 112.18 23.9816C103.483 7.24297 85.5184 -2.11015 66.9547 0.427734Z" fill="#5CC3FD"/>
<path d="M62.7344 63.7619C62.0215 63.819 59.7973 64.0186 57.7441 64.1612C49.8453 64.817 41.8895 66.0432 33.5059 67.8967C22.1281 70.3776 20.2461 71.1475 18.7063 73.8565L17.8223 75.4248V104.511V133.597L18.7063 135.165C19.9895 137.446 21.4438 138.216 27.432 139.842C58.0578 148.054 88.7691 148.026 119.053 139.699C124.984 138.074 126.125 137.418 127.579 134.737L128.178 133.597V104.511V75.4248L127.294 73.8565C125.925 71.4326 124.613 70.8053 117.57 69.0658C108.16 66.7561 100.318 65.3873 90.1094 64.2752C86.2027 63.8475 66.1277 63.4768 62.7344 63.7619ZM76.593 92.4487C78.6746 93.2186 80.4996 94.901 81.5832 97.1252C82.3816 98.7506 82.5242 99.2924 82.5242 101.174C82.5242 103.826 81.5547 106.279 79.8723 107.904L78.7887 108.959L79.7582 112.01C80.8133 115.375 80.8133 116.288 79.6441 117.2C78.9598 117.742 78.5035 117.771 73 117.771C67.4965 117.771 67.0402 117.742 66.3559 117.2C65.1867 116.288 65.1867 115.375 66.2418 112.01L67.2113 108.959L66.1277 107.904C65.5574 107.334 64.702 106.079 64.2742 105.11C62.1926 100.576 64.1887 94.958 68.5801 92.8194C71.232 91.5076 73.7699 91.3936 76.593 92.4487Z" fill="#5CC3FD"/>
</svg>
