<svg width="258" height="32" viewBox="0 0 258 32" fill="none" xmlns="http://www.w3.org/2000/svg">
<path d="M38.8366 3.76C41.4766 3.76 43.3699 4.45333 44.5166 5.84C45.6899 7.22667 46.0366 9.25333 45.5566 11.92L43.9566 20.88C43.4766 23.5467 42.5699 25.44 41.2366 26.56C39.9299 27.68 37.9566 28.24 35.3166 28.24H24.5166L23.9166 31.6H17.3566L17.9566 28.24H7.95656C5.31656 28.24 3.4099 27.5467 2.23656 26.16C1.0899 24.7733 0.756563 22.7467 1.23656 20.08L2.83656 11.12C3.31656 8.45333 4.2099 6.56 5.51656 5.44C6.8499 4.32 8.83656 3.76 11.4766 3.76H22.2766L22.8766 0.4H29.4366L28.8366 3.76H38.8366ZM11.1966 23.08H18.8766L21.3566 8.92H13.4366C12.2099 8.92 11.3299 9.14667 10.7966 9.6C10.2632 10.0533 9.8899 10.8933 9.67656 12.12L8.35656 19.68C8.14323 20.9067 8.2499 21.7867 8.67656 22.32C9.1299 22.8267 9.9699 23.08 11.1966 23.08ZM38.4366 12.32C38.6499 11.0933 38.5299 10.2267 38.0766 9.72C37.6499 9.18667 36.8232 8.92 35.5966 8.92H27.9166L25.4366 23.08H33.3566C34.5832 23.08 35.4632 22.8533 35.9966 22.4C36.5299 21.9467 36.9032 21.1067 37.1166 19.88L38.4366 12.32ZM53.4772 30C48.5705 30 46.5439 27.5333 47.3972 22.6L48.6772 15.28C49.1039 12.8267 49.8772 11.12 50.9972 10.16C52.1439 9.2 53.9439 8.72 56.3972 8.72H70.6772C75.5839 8.72 77.6105 11.1867 76.7572 16.12L75.4772 23.44C75.0505 25.8933 74.2639 27.6 73.1172 28.56C71.9972 29.52 70.2105 30 67.7572 30H53.4772ZM56.5972 24.8H65.9172C66.9839 24.8 67.7172 24.6267 68.1172 24.28C68.5439 23.9067 68.8505 23.2 69.0372 22.16L69.9972 16.84C70.1839 15.7733 70.0905 15.0267 69.7172 14.6C69.3439 14.1467 68.6239 13.92 67.5572 13.92H58.2372C57.1705 13.92 56.4239 14.1067 55.9972 14.48C55.5972 14.8267 55.3039 15.52 55.1172 16.56L54.1572 21.88C53.9705 22.9467 54.0639 23.7067 54.4372 24.16C54.8105 24.5867 55.5305 24.8 56.5972 24.8ZM79.355 14.04L80.315 8.72H107.195L106.235 14.04H96.155L93.315 30H86.675L89.475 14.04H79.355ZM113.087 30C108.18 30 106.153 27.5333 107.007 22.6L108.287 15.28C108.713 12.8267 109.487 11.12 110.607 10.16C111.753 9.2 113.553 8.72 116.007 8.72H130.287C135.193 8.72 137.22 11.1867 136.367 16.12L135.087 23.44C134.66 25.8933 133.873 27.6 132.727 28.56C131.607 29.52 129.82 30 127.367 30H113.087ZM116.207 24.8H125.527C126.593 24.8 127.327 24.6267 127.727 24.28C128.153 23.9067 128.46 23.2 128.647 22.16L129.607 16.84C129.793 15.7733 129.7 15.0267 129.327 14.6C128.953 14.1467 128.233 13.92 127.167 13.92H117.847C116.78 13.92 116.033 14.1067 115.607 14.48C115.207 14.8267 114.913 15.52 114.727 16.56L113.767 21.88C113.58 22.9467 113.673 23.7067 114.047 24.16C114.42 24.5867 115.14 24.8 116.207 24.8ZM140.401 13.2H157.681L156.721 18.8H139.441L140.401 13.2Z" fill="white"/>
<path d="M158.626 30L163.586 2H187.586C192.439 2 194.452 4.45333 193.626 9.36L192.706 14.6C192.279 17.08 191.492 18.8 190.346 19.76C189.199 20.72 187.399 21.2 184.946 21.2H167.226L165.666 30H158.626ZM168.146 16.08H182.786C183.826 16.08 184.546 15.8933 184.946 15.52C185.346 15.1467 185.652 14.44 185.866 13.4L186.426 10.28C186.612 9.21333 186.519 8.46666 186.146 8.04C185.772 7.58667 185.052 7.36 183.986 7.36H169.626L168.146 16.08ZM217.312 8.72C222.219 8.72 224.246 11.1867 223.392 16.12L222.112 23.44C221.686 25.92 220.899 27.64 219.752 28.6C218.632 29.5333 216.846 30 214.392 30H200.312C195.379 30 193.352 27.5333 194.232 22.6L194.512 21H200.952L200.752 22.04C200.566 23.08 200.659 23.8267 201.032 24.28C201.432 24.7333 202.166 24.96 203.232 24.96H212.512C213.552 24.96 214.272 24.7867 214.672 24.44C215.072 24.0667 215.379 23.3467 215.592 22.28L215.832 21H205.512L206.152 17.24H216.512L216.632 16.68C216.819 15.64 216.712 14.8933 216.312 14.44C215.939 13.9867 215.219 13.76 214.152 13.76H204.872C203.832 13.76 203.112 13.9467 202.712 14.32C202.312 14.6667 202.006 15.3733 201.792 16.44L201.592 17.48H195.152L195.512 15.28C195.912 12.8 196.672 11.0933 197.792 10.16C198.939 9.2 200.752 8.72 203.232 8.72H217.312ZM238.191 7.04C236.138 7.04 235.298 6.02667 235.671 4L236.031 2H240.591L240.351 3.2C240.244 3.94667 240.564 4.32 241.311 4.32H246.871C247.591 4.32 248.004 3.94667 248.111 3.2L248.351 2H252.911L252.551 4.16C252.364 5.17333 252.004 5.90667 251.471 6.36C250.938 6.81333 250.164 7.04 249.151 7.04H238.191ZM251.591 8.72H257.191L253.431 30H246.991L249.431 16.28L230.311 30H225.031L228.791 8.72H235.191L232.791 22.2L251.591 8.72Z" fill="#5CC3FD"/>
</svg>
