<svg width="58" height="60" viewBox="0 0 58 60" fill="none" xmlns="http://www.w3.org/2000/svg">
<path d="M47.2039 3.44531C45.7539 3.98437 45.0289 5.70703 45.6633 7.14843C45.9465 7.80468 46.2637 8.15625 46.8188 8.44921L47.2379 8.67187V13.9453V19.2187L46.6715 20.0156C46.3656 20.4492 45.9692 21.1758 45.7992 21.6211L45.4821 22.4414L45.4254 29.2969C45.3574 36.5977 45.3801 36.3516 44.8024 37.5C44.5192 38.0625 43.7488 38.8828 43.1938 39.2227C42.9219 39.3867 42.6727 39.5039 42.65 39.4805C42.6274 39.457 42.7067 39.1289 42.8313 38.7539C43.9188 35.4023 43.5676 30.6914 41.8797 26.1914C39.3875 19.5234 33.7688 14.2734 27.2438 12.5039C18.2832 10.0781 8.84689 13.7812 3.68127 21.7383C0.58869 26.4961 -0.612091 32.3555 0.464081 37.4414C1.30236 41.4609 3.63596 45.3281 6.61525 47.6719L7.36291 48.2578L4.84806 49.6992C2.12931 51.2695 1.42697 51.8203 0.792596 52.9219C0.362128 53.6602 0.0109557 54.8555 0.0109557 55.6406C-0.00037247 56.0273 0.0675963 56.2148 0.282831 56.4258L0.554706 56.7188H21.9988C40.2824 56.7188 43.5903 56.6953 44.4625 56.543C46.241 56.25 47.6344 55.6875 49.0957 54.6797C51.2481 53.2031 52.8453 51.0703 53.6949 48.5742C54.3406 46.6758 54.3746 46.0781 54.3746 37.6758C54.386 31.875 54.4199 30.0117 54.5219 29.8828C54.6012 29.7773 54.9184 29.5078 55.2356 29.2734C56.8555 28.0547 57.807 26.3672 57.9656 24.4336C58.1809 21.8086 56.7649 19.2187 54.4992 18.0703L53.6156 17.625L54.5899 13.2187L55.5528 8.80078L55.9039 8.74218C56.5043 8.625 57.2746 8.02734 57.6258 7.41796C57.8977 6.9375 57.943 6.72656 57.943 6.03515C57.9317 5.09765 57.7731 4.6875 57.1387 4.05468C55.9606 2.87109 53.9555 3.14062 53.0832 4.60546C52.4375 5.69531 52.5848 7.05468 53.4684 7.96875L53.8988 8.41406L52.9246 12.8672L51.9504 17.3203L51.1914 17.4023C50.7836 17.4492 50.1039 17.6016 49.6961 17.7422L48.9371 18.0117V13.3594V8.70703L49.4469 8.36718C50.8969 7.41796 51.1461 5.55468 50.002 4.23046C49.2543 3.36328 48.2235 3.07031 47.2039 3.44531ZM48.7219 5.3789C48.9145 5.58984 49.0504 5.84765 49.0504 6.03515C49.0504 6.48046 48.484 7.03125 48.0309 7.03125C47.5551 7.03125 47.1246 6.57421 47.1246 6.07031C47.136 5.13281 48.0875 4.72265 48.7219 5.3789ZM55.9719 5.3789C56.425 5.84765 56.3797 6.46875 55.8586 6.8789C55.3262 7.30078 54.3746 6.77343 54.3746 6.07031C54.3746 5.625 54.9184 5.03906 55.3375 5.03906C55.5188 5.03906 55.768 5.17968 55.9719 5.3789ZM24.6043 13.7227C30.1098 14.5781 35.1621 17.9414 38.3113 22.8516C39.6594 24.9609 40.8488 27.9258 41.336 30.4102C42.3668 35.6602 41.5285 39.3984 38.6738 42.3516C37.4504 43.6289 36.261 44.4023 34.6977 44.9531C33.5875 45.3398 32.1942 45.5859 31.0727 45.5859C30.3363 45.5859 30.0192 45.8555 30.0192 46.4531C30.0192 46.7578 30.0985 46.9219 30.3363 47.1094C30.6195 47.3555 30.7215 47.3672 31.7863 47.2969C35.5133 47.0742 38.7985 45.3164 40.9168 42.4219C41.4492 41.707 41.5059 41.6602 42.1516 41.5195C44.202 41.0859 46.0371 39.375 46.8074 37.1484C47.068 36.3867 47.068 36.3398 47.1246 29.5312L47.1813 22.6758L47.5551 21.8789C48.4727 19.9453 50.4664 18.8672 52.4375 19.2187C55.5188 19.7695 57.1727 23.0977 55.7906 25.9805C55.3828 26.8242 54.9637 27.293 53.8082 28.1602C53.4797 28.4062 53.1852 28.7578 52.9926 29.168L52.6754 29.8125V37.5586C52.6754 46.0898 52.6528 46.5117 51.9957 48.2578C51.4406 49.7461 50.8856 50.6016 49.6735 51.8555C48.4613 53.1094 47.6344 53.6836 46.1957 54.2578C44.3606 54.9961 45.3914 54.9609 22.5766 54.9609H1.8008L1.86877 54.6914C2.03869 54.1289 2.55978 53.2734 2.95627 52.9219C3.19416 52.7227 4.65549 51.832 6.21877 50.9297L9.0508 49.3125L9.99103 49.7227C11.1578 50.2383 12.1774 50.5547 13.4574 50.8242C14.8281 51.1055 17.6942 51.0937 19.1442 50.8125C25.7711 49.5 30.8348 44.3906 32.2508 37.582C32.5567 36.1523 32.5227 32.9648 32.1942 31.7344C31.6391 29.625 30.6988 27.8789 29.2942 26.3789C27.1758 24.1172 24.7516 23.0508 21.693 23.0625C20.2656 23.0625 19.0309 23.2969 17.7735 23.8008C16.7992 24.1875 16.5047 24.457 16.5047 24.9609C16.5047 25.7695 17.1844 25.9922 18.2492 25.5117C20.1184 24.668 22.5653 24.5742 24.5703 25.2656C25.8731 25.7109 26.8926 26.3906 27.9801 27.5273C29.011 28.6172 29.4754 29.332 30.0758 30.7852C31.4805 34.1836 30.8348 38.7656 28.4219 42.5977C27.6516 43.8047 25.5785 45.9492 24.4117 46.7461C21.8403 48.4922 19.3254 49.2656 16.2555 49.2656C12.2113 49.2656 8.88088 47.7891 6.0715 44.7656C2.01603 40.3828 0.758612 34.3125 2.61642 28.0898C4.97267 20.1914 11.6336 14.543 19.7219 13.6055C20.8321 13.4766 23.4149 13.5352 24.6043 13.7227Z" fill="#5CC3FD"/>
<path d="M13.6274 26.7891C11.4184 29.2148 10.3536 33.5039 11.2712 36.2227C12.2114 38.9648 14.5223 40.7109 17.2184 40.7109C18.929 40.7109 20.3903 40.0664 21.6477 38.7773C22.8938 37.5 23.5282 35.8359 23.4263 34.125C23.3583 33.0703 23.0184 32.2617 22.3501 31.5703C21.3192 30.5273 19.7333 30.2695 18.4079 30.9258C17.4903 31.3711 16.8333 32.1445 16.5388 33.1406C16.2442 34.1133 16.2555 34.3711 16.5727 34.7578C16.7653 34.9922 16.9466 35.0742 17.2184 35.0742C17.6942 35.0742 17.9548 34.7578 18.0567 34.0781C18.1473 33.4219 18.4759 32.8711 18.9403 32.5664C19.2348 32.3789 19.4614 32.3438 20.0165 32.3672C20.6395 32.4141 20.7755 32.4609 21.1266 32.8125C21.6364 33.3164 21.795 33.832 21.7157 34.7578C21.4325 38.4375 16.9352 40.3125 14.3298 37.8398C13.1516 36.7148 12.6532 35.543 12.6532 33.8672C12.6645 31.9336 13.3329 30.0703 14.6583 28.2656C15.0095 27.7852 15.2927 27.3047 15.2927 27.1875C15.2927 27.082 15.1907 26.8477 15.0548 26.6719C14.6923 26.2031 14.1259 26.25 13.6274 26.7891Z" fill="#5CC3FD"/>
</svg>
