<svg width="89" height="89" viewBox="0 0 89 89" fill="none" xmlns="http://www.w3.org/2000/svg">
<g clip-path="url(#clip0_1_3566)">
<path d="M3.30176 0.157425C2.10234 0.522461 1.04199 1.42637 0.416211 2.6084C0.10332 3.19942 0.0859375 4.13809 0.0859375 26.6836V50.1504L0.468359 50.8631C0.955078 51.7844 1.70254 52.5318 2.5543 52.949C3.18008 53.2619 3.84062 53.2793 15.6957 53.3314L28.1592 53.3662V59.2764V65.1865H25.2041H22.249V66.751V68.3154H36.3291H50.4092V76.6244C50.4092 85.9416 50.4439 86.185 51.5738 87.4539C51.9215 87.8363 52.5299 88.323 52.9123 88.5316L53.625 88.9141H69.7041H85.7832L86.4785 88.5316C87.2955 88.0971 88.1299 87.2453 88.5818 86.3936C88.8947 85.8025 88.9121 84.8291 88.9121 60.8408C88.9121 36.5223 88.9121 35.8791 88.5818 35.2186C88.182 34.4189 87.2955 33.4977 86.5133 33.0805C86.0266 32.8023 85.3139 32.7676 80.099 32.7154L74.241 32.6633L74.1889 18.027L74.1367 3.39062L73.7369 2.6084C73.1285 1.46114 72.3637 0.748444 71.3207 0.348633C70.3994 0.000976562 69.9648 0.000976562 37.0592 0.018364C18.7377 0.018364 3.54512 0.0878906 3.30176 0.157425ZM70.3994 3.2168C70.7471 3.39062 70.973 3.70352 71.0947 4.13809C71.2338 4.57266 71.2686 9.09219 71.2338 18.6875L71.1816 32.5938L70.4516 32.6459L69.7041 32.698V18.618V4.52051H37.1113H4.51855V25.293V46.0654H27.4639H50.4092V48.2383V50.4111H27.1857H3.9623L3.4582 49.907L2.9541 49.4029V26.6836V3.96426L3.4582 3.46016L3.9623 2.95605H36.9375C65.9494 2.95605 69.9475 2.99082 70.3994 3.2168ZM66.749 20.0781V32.6633L60.1957 32.7154C52.9471 32.7676 52.9471 32.7676 51.7824 33.9496C50.6178 35.1143 50.5135 35.5488 50.4439 39.4078L50.3744 42.9365H28.924H7.47363V25.2061V7.47559H37.1113H66.749V20.0781ZM85.366 35.8617C86.0439 36.3832 86.0439 36.2441 86.0439 55.5217V74.2256H69.7041H53.3643L53.399 55.3826L53.4512 36.5396L53.8684 36.0877L54.2855 35.6357H69.6867C81.5244 35.6531 85.1574 35.6879 85.366 35.8617ZM42.9346 59.2764V65.1865H37.0244H31.1143V59.2764V53.3662H37.0244H42.9346V59.2764ZM50.4092 59.2764V65.1865H48.2363H46.0635V59.2764V53.3662H48.2363H50.4092V59.2764ZM86.0439 81.1092V85.0377L85.5398 85.5418L85.0184 86.0459L69.6346 86.0111L54.2508 85.959L53.851 85.5592C53.4686 85.1768 53.4512 85.0725 53.399 81.1787L53.3469 77.1807H69.6867H86.0439V81.1092Z" fill="#5CC3FD"/>
<path d="M26.6643 11.9951C22.6836 12.5861 19.2418 15.6455 18.1641 19.5566C17.9729 20.2867 17.8512 21.6426 17.7816 24.0414L17.6773 27.5006L15.8348 25.658L13.9922 23.8154L12.9492 24.8584L11.9062 25.9014L15.6088 29.6039L19.2939 33.2891L22.9791 29.6039L26.6816 25.9014L25.6387 24.8584L24.5957 23.8154L22.7705 25.6406C21.7623 26.6488 20.8758 27.4658 20.7889 27.4658C20.702 27.4658 20.6846 26.023 20.7367 24.1979C20.8063 21.573 20.8932 20.7561 21.1713 19.9738C22.1621 17.1926 24.3697 15.35 27.2031 14.9502C27.8811 14.8633 32.3658 14.7764 37.2504 14.7764H46.0809L46.0287 13.3336L45.9766 11.9082L36.7637 11.8908C31.7053 11.8734 27.151 11.9256 26.6643 11.9951Z" fill="#5CC3FD"/>
<path d="M45.2822 20.8594L41.6318 24.5098L42.6748 25.5527L43.7178 26.5957L45.5951 24.7357L47.4725 22.8584L47.4203 26.335C47.3508 29.4639 47.316 29.9158 46.951 30.8197C46.4469 32.1061 45.3691 33.4445 44.1523 34.2963C42.3445 35.5479 42.5705 35.5305 31.8627 35.6L22.25 35.6521V37.1297V38.5898H31.602C42.0316 38.5898 42.3967 38.5551 44.6738 37.4426C46.5859 36.5039 48.4459 34.5918 49.3498 32.6623C50.2537 30.7328 50.4102 29.742 50.4102 26.0047V22.8584L52.2875 24.7357L54.1475 26.5957L55.1904 25.5527L56.2334 24.5098L52.583 20.8594L48.9326 17.209L45.2822 20.8594Z" fill="#5CC3FD"/>
<path d="M68.3999 43.1453C60.3343 43.9797 55.4845 52.7927 59.0827 60.0588C60.5776 63.0486 63.0286 65.1693 66.1401 66.1601C73.7364 68.5763 81.5413 62.8748 81.5239 54.9482C81.5239 52.9144 81.1415 51.3326 80.2724 49.5595C79.3163 47.6301 77.1956 45.4224 75.353 44.4664C73.1802 43.3365 70.8509 42.8845 68.3999 43.1453ZM72.3284 46.4133C76.7958 47.7865 79.4727 52.6015 78.3081 57.1037C77.439 60.389 74.5534 63.0486 71.1985 63.6396C65.862 64.5609 60.8558 60.3021 60.8384 54.8439C60.8384 51.1066 63.4284 47.6127 67.0962 46.3959C68.452 45.9613 70.8856 45.9613 72.3284 46.4133Z" fill="#5CC3FD"/>
<path d="M71.877 53.5391L68.2266 57.1895L66.6621 55.625L65.0803 54.0605L64.0547 55.1035L63.0117 56.1465L65.6191 58.7539L68.2266 61.3613L72.9199 56.668L77.6133 51.9746L76.5703 50.9316L75.5273 49.8887L71.877 53.5391Z" fill="#5CC3FD"/>
<path d="M63.793 81.6123V83.0898H65.2705H66.748V81.6123V80.1348H65.2705H63.793V81.6123Z" fill="#5CC3FD"/>
<path d="M68.3125 81.6123V83.0898H69.79H71.2676V81.6123V80.1348H69.79H68.3125V81.6123Z" fill="#5CC3FD"/>
<path d="M72.6602 81.6123V83.0898H74.1377H75.6152V81.6123V80.1348H74.1377H72.6602V81.6123Z" fill="#5CC3FD"/>
</g>
<defs>
<clipPath id="clip0_1_3566">
<rect width="89" height="89" fill="white"/>
</clipPath>
</defs>
</svg>
