<svg width="103" height="103" viewBox="0 0 103 103" fill="none" xmlns="http://www.w3.org/2000/svg">
<g clip-path="url(#clip0_1_3581)">
<path d="M50.3936 0.38221C50.0516 0.583382 49.5084 1.04608 49.2066 1.42831C48.8848 1.81053 46.7926 3.98319 44.5596 6.27655L40.4959 10.4408L33.7969 8.54979C30.1154 7.5037 26.9168 6.63866 26.7156 6.63866C26.0518 6.63866 25.2068 7.20194 24.9856 7.78534C24.8447 8.0871 24.0199 11.2455 23.1147 14.7861C22.2295 18.3267 21.4248 21.284 21.3645 21.3644C21.284 21.4248 18.3268 22.2295 14.7861 23.1146C11.2455 24.0199 8.08712 24.8648 7.78536 24.9855C7.20196 25.2068 6.63868 26.0517 6.63868 26.6955C6.63868 26.8967 7.50372 30.0953 8.54982 33.7969L10.4609 40.5361L9.41486 41.542C4.86837 45.8269 0.201184 50.5545 0.080481 50.9971C0.0201294 51.2787 0.0201294 51.7213 0.080481 52.0029C0.201184 52.4455 4.86837 57.1931 9.41486 61.458L10.4609 62.4639L8.54982 69.2031C7.50372 72.9047 6.63868 76.1033 6.63868 76.3045C6.63868 76.9482 7.20196 77.7932 7.78536 78.0144C8.08712 78.1351 11.2455 78.9801 14.7861 79.8652C18.3268 80.7705 21.284 81.5752 21.3645 81.6355C21.4248 81.716 22.2295 84.6732 23.1147 88.2139C24.0199 91.7545 24.8447 94.9129 24.9856 95.2146C25.2068 95.798 26.0518 96.3613 26.7156 96.3613C26.9168 96.3613 30.1154 95.4963 33.817 94.4502L40.5361 92.5391L41.542 93.5851C46.008 98.3328 50.5344 102.799 50.977 102.92C51.2586 102.98 51.7414 102.98 52.0231 102.92C52.4656 102.799 57.0725 98.2523 61.458 93.5851L62.4639 92.5391L69.2031 94.4502C72.9047 95.4963 76.1033 96.3613 76.3045 96.3613C76.8477 96.3613 77.7932 95.8182 77.9541 95.4158C78.0346 95.2146 78.8795 92.016 79.8451 88.3144L81.5752 81.5752L88.3145 79.8451C92.016 78.8795 95.2147 78.0346 95.4158 77.9541C95.8182 77.7932 96.3613 76.8476 96.3613 76.3045C96.3613 76.1033 95.4963 72.9047 94.4502 69.2031L92.5391 62.4639L93.6857 61.3574C99.0168 56.308 102.799 52.4656 102.92 52.023C102.98 51.7414 102.98 51.2586 102.92 50.9769C102.799 50.5344 99.0168 46.692 93.6857 41.6426L92.5391 40.5361L94.4502 33.7969C95.4963 30.0953 96.3613 26.8967 96.3613 26.6955C96.3613 26.1523 95.8182 25.2068 95.4158 25.0459C95.2147 24.9654 92.016 24.1205 88.3145 23.1549L81.5752 21.4248L79.8451 14.6855C78.8795 10.984 78.0346 7.78534 77.9541 7.58417C77.7932 7.18182 76.8477 6.63866 76.3045 6.63866C76.1033 6.63866 72.9047 7.5037 69.2031 8.54979L62.4639 10.4609L61.9408 9.89764C54.7188 2.41405 52.7875 0.462685 52.4254 0.261513C51.8219 -0.100601 51.0775 -0.0603638 50.3936 0.38221ZM56.3281 9.85741C60.432 14.0418 61.1361 14.7057 61.6592 14.7057C62.0012 14.7057 65.0389 13.901 68.4387 12.9353C71.8385 11.9697 74.675 11.2455 74.7555 11.3058C74.8158 11.3863 75.5803 14.2631 76.4453 17.7232C77.7127 22.7324 78.1352 24.1004 78.4973 24.4826C78.8795 24.8447 80.2676 25.2672 85.2768 26.5346C88.7369 27.4197 91.6338 28.1842 91.6941 28.2646C91.7545 28.325 91.0303 31.1615 90.0647 34.5613C89.099 37.9611 88.2943 40.9988 88.2943 41.3408C88.2943 41.8639 88.9582 42.5881 93.1828 46.7121L98.0713 51.5L93.1828 56.2678C88.9582 60.4119 88.2943 61.1361 88.2943 61.6592C88.2943 61.981 89.099 65.0389 90.0647 68.4387C91.0303 71.8385 91.7545 74.675 91.6941 74.7353C91.6338 74.8158 88.7369 75.5803 85.2768 76.4654C80.2676 77.7328 78.8795 78.1553 78.4973 78.5174C78.1352 78.8996 77.7127 80.2676 76.4453 85.2767C75.5803 88.7369 74.8158 91.6137 74.7555 91.6941C74.675 91.7545 71.8385 91.0303 68.4387 90.0646C65.0389 89.099 62.0012 88.2943 61.6592 88.2943C61.1361 88.2943 60.4119 88.9582 56.2879 93.1828L51.5 98.0713L46.7322 93.1828C42.5881 88.9582 41.8639 88.2943 41.3408 88.2943C41.019 88.2943 37.9611 89.099 34.5613 90.0646C31.1615 91.0303 28.325 91.7545 28.2445 91.6941C28.1842 91.6137 27.4197 88.7369 26.5547 85.2767C25.2672 80.167 24.8649 78.8996 24.4826 78.4973C24.0803 78.115 22.8129 77.7328 17.7233 76.4453C14.2631 75.5803 11.3863 74.8158 11.3059 74.7555C11.2455 74.675 11.9697 71.8385 12.9354 68.4387C13.901 65.0389 14.7057 61.981 14.7057 61.6592C14.7057 61.1361 14.0418 60.4119 9.8172 56.2678L4.92872 51.5L9.8172 46.7121C14.0418 42.5881 14.7057 41.8639 14.7057 41.3408C14.7057 40.9988 13.901 37.9611 12.9354 34.5613C11.9697 31.1615 11.2455 28.325 11.3059 28.2445C11.3863 28.1842 14.2631 27.4197 17.7233 26.5547C22.7727 25.2672 24.1004 24.8648 24.4826 24.4826C24.8649 24.1004 25.2672 22.7726 26.5547 17.7232C27.4197 14.2631 28.1842 11.3863 28.2445 11.3058C28.325 11.2455 31.1615 11.9697 34.5613 12.9353C37.9611 13.901 41.019 14.7057 41.3408 14.7057C41.8639 14.7057 42.568 14.0619 46.6518 9.85741C49.2469 7.20194 51.4195 5.02928 51.4799 5.02928C51.5402 5.02928 53.733 7.20194 56.3281 9.85741Z" fill="#5CC3FD"/>
<path d="M65.784 32.7298C65.6231 32.7902 60.976 37.3367 55.484 42.8287L45.4657 52.8068L41.5026 48.8437C37.1171 44.4783 36.7952 44.257 35.568 45.0214C34.4616 45.7255 28.4063 51.9417 28.2655 52.5453C28.185 52.8671 28.185 53.3499 28.2655 53.6517C28.4465 54.4363 44.138 70.1277 44.9225 70.3087C45.2243 70.3892 45.7071 70.3892 46.029 70.3087C46.7934 70.1277 74.5551 42.366 74.7362 41.5814C75.0178 40.4951 74.6557 39.972 71.2559 36.5521C67.3934 32.6494 66.9307 32.3275 65.784 32.7298ZM68.1981 39.3283L69.9081 41.0382L57.6768 53.2695L45.4657 65.4806L39.2897 59.3046L33.0936 53.1085L34.8438 51.3583L36.6141 49.588L40.5973 53.5712C44.5805 57.5142 44.5805 57.5343 45.4657 57.5343H46.371L56.329 47.5763C61.8008 42.1044 66.3272 37.6183 66.3876 37.6183C66.4479 37.6183 67.2727 38.3828 68.1981 39.3283Z" fill="#5CC3FD"/>
</g>
<defs>
<clipPath id="clip0_1_3581">
<rect width="103" height="103" fill="white"/>
</clipPath>
</defs>
</svg>
