<svg width="582" height="71" viewBox="0 0 582 71" fill="none" xmlns="http://www.w3.org/2000/svg">
<path d="M68.77 4C73.51 4 76.93 5.29 79.03 7.87C81.13 10.39 81.76 14.08 80.92 18.94L80.2 23.53C79.6 26.83 78.67 29.38 77.41 31.18C76.15 32.98 74.35 34.21 72.01 34.87C76.87 36.61 78.76 40.87 77.68 47.65L76.69 53.5C75.91 58.42 74.29 61.9 71.83 63.94C69.43 65.98 65.77 67 60.85 67H0.82L12.07 4H68.77ZM29.44 18.49L27.64 28.93H55.54C56.98 28.93 58 28.66 58.6 28.12C59.2 27.58 59.65 26.56 59.95 25.06L60.4 22.54C60.7 21.1 60.58 20.08 60.04 19.48C59.5 18.82 58.48 18.49 56.98 18.49H29.44ZM58.33 44.86C58.57 43.36 58.42 42.31 57.88 41.71C57.4 41.05 56.41 40.72 54.91 40.72H25.57L23.5 52.51H53.2C54.64 52.51 55.66 52.24 56.26 51.7C56.86 51.16 57.31 50.14 57.61 48.64L58.33 44.86ZM82.0352 67L93.1952 4H148.455C159.915 4 164.655 9.76 162.675 21.28L160.515 33.52C159.555 39.28 157.725 43.3 155.025 45.58C152.325 47.86 148.095 49 142.335 49H105.255L102.015 67H82.0352ZM107.775 34.69H135.765C137.565 34.69 138.825 34.36 139.545 33.7C140.325 33.04 140.865 31.78 141.165 29.92L142.245 23.98C142.545 22.12 142.365 20.83 141.705 20.11C141.105 19.39 139.875 19.03 138.015 19.03H110.475L107.775 34.69Z" fill="#5CC3FD"/>
<path d="M166.899 27.67H206.859L204.159 43.33H164.199L166.899 27.67ZM277.835 4H294.755L283.595 67H264.335L270.905 29.92L223.655 67H207.455L218.615 4H237.875L231.485 40.36L277.835 4ZM371.65 4L368.59 21.19H342.85L334.75 67H314.77L322.87 21.19H297.13L300.19 4H371.65ZM365.922 67L369.612 46.66H391.302L387.702 67H365.922ZM396.332 67L407.492 4H462.752C474.212 4 478.952 9.76 476.972 21.28L474.812 33.52C473.852 39.28 472.022 43.3 469.322 45.58C466.622 47.86 462.392 49 456.632 49H419.552L416.312 67H396.332ZM422.072 34.69H450.062C451.862 34.69 453.122 34.36 453.842 33.7C454.622 33.04 455.162 31.78 455.462 29.92L456.542 23.98C456.842 22.12 456.662 20.83 456.002 20.11C455.402 19.39 454.172 19.03 452.312 19.03H424.772L422.072 34.69ZM564.536 7.78C570.716 7.78 575.156 9.4 577.856 12.64C580.556 15.88 581.336 20.62 580.196 26.86L576.776 45.94C575.636 52.18 573.506 56.62 570.386 59.26C567.266 61.9 562.616 63.22 556.436 63.22H533.846L532.496 70.6H513.956L515.306 63.22H494.336C488.156 63.22 483.716 61.6 481.016 58.36C478.316 55.12 477.536 50.38 478.676 44.14L482.096 25.06C483.236 18.82 485.366 14.38 488.486 11.74C491.606 9.1 496.256 7.78 502.436 7.78H525.026L526.376 0.399999H544.916L543.566 7.78H564.536ZM503.876 48.82H517.826L522.506 22.18H508.106C506.006 22.18 504.476 22.6 503.516 23.44C502.616 24.22 501.956 25.69 501.536 27.85L498.926 42.88C498.506 45.04 498.686 46.57 499.466 47.47C500.246 48.37 501.716 48.82 503.876 48.82ZM560.036 28.12C560.396 25.96 560.186 24.43 559.406 23.53C558.626 22.63 557.186 22.18 555.086 22.18H541.046L536.366 48.82H550.766C552.926 48.82 554.456 48.43 555.356 47.65C556.316 46.81 556.976 45.31 557.336 43.15L560.036 28.12Z" fill="white"/>
</svg>
