<svg width="98" height="29" viewBox="0 0 98 29" fill="none" xmlns="http://www.w3.org/2000/svg">
<path d="M14.2786 29H7.99859L0.158594 0.999998H5.95859L11.3186 21.76L17.1586 0.999998H21.8786L27.7586 21.76L33.1186 0.999998H38.9186L31.0786 29H24.7986L19.5186 10.52L14.2786 29ZM43.6583 6.6C42.8049 6.6 42.0583 6.29333 41.4183 5.68C40.8049 5.04 40.4983 4.29333 40.4983 3.44C40.4983 2.58667 40.8049 1.84 41.4183 1.2C42.0583 0.559998 42.8049 0.239998 43.6583 0.239998C44.5383 0.239998 45.2849 0.559998 45.8983 1.2C46.5383 1.84 46.8583 2.58667 46.8583 3.44C46.8583 4.29333 46.5383 5.04 45.8983 5.68C45.2849 6.29333 44.5383 6.6 43.6583 6.6ZM46.2583 29H41.0983V9H46.2583V29ZM66.2211 19.4H51.2211V14.44H66.2211V19.4ZM88.1364 0.999998V6.28H76.9364V12.92H87.8164V18.2H76.9364V29H71.4164V0.999998H88.1364ZM94.4786 6.6C93.6253 6.6 92.8786 6.29333 92.2386 5.68C91.6253 5.04 91.3186 4.29333 91.3186 3.44C91.3186 2.58667 91.6253 1.84 92.2386 1.2C92.8786 0.559998 93.6253 0.239998 94.4786 0.239998C95.3586 0.239998 96.1053 0.559998 96.7186 1.2C97.3586 1.84 97.6786 2.58667 97.6786 3.44C97.6786 4.29333 97.3586 5.04 96.7186 5.68C96.1053 6.29333 95.3586 6.6 94.4786 6.6ZM97.0786 29H91.9186V9H97.0786V29Z" fill="white"/>
</svg>
